<?xml version="1.0" encoding="UTF-8"?>
<!-- Generator: visioncortex VTracer 0.6.3 -->
<svg version="1.1" xmlns="http://www.w3.org/2000/svg" width="1280" height="720">
<path d="M0 0 C422.4 0 844.8 0 1280 0 C1280 237.6 1280 475.2 1280 720 C857.6 720 435.2 720 0 720 C0 482.4 0 244.8 0 0 Z " fill="#252837" transform="translate(0,0)"/>
<path d="M0 0 C5.46 4.44 8.36 8.23 9.81 15.25 C10.4 21.72 9.19 26.94 5.41 32.21 C1.04 37.1 -3.67 39.51 -10.19 40.25 C-16.65 39.95 -22.31 38.67 -27.19 34.25 C-32.09 27.86 -34.34 23.43 -34.19 15.25 C-33.53 15.25 -32.87 15.25 -32.19 15.25 C-32.16 13.77 -32.16 13.77 -32.12 12.25 C-31.36 7.01 -28.12 3.59 -24.19 0.25 C-21.59 -1.18 -19.06 -2.04 -16.19 -2.75 C-15.34 -3 -14.5 -3.25 -13.62 -3.5 C-8.18 -4.06 -4.41 -3.19 0 0 Z " fill="#252837" transform="translate(697.1875,91.75)"/>
<path d="M0 0 C5.63 6.39 7.32 10.99 7.22 19.47 C6.72 25.21 4.05 29.95 0 34 C-6.11 38.53 -12.6 38.97 -20 38 C-26.99 36.03 -31.65 31.16 -35.16 24.95 C-36.2 22.53 -36.07 20.6 -36 18 C-36.33 17.34 -36.66 16.68 -37 16 C-36.34 16 -35.68 16 -35 16 C-34.92 14.8 -34.84 13.61 -34.75 12.38 C-34 6.65 -31.36 2.89 -26.94 -0.75 C-18.42 -6.44 -7.89 -6.41 0 0 Z " fill="#252837" transform="translate(887,274)"/>
<path d="M0 0 C6.36 -0.45 10.75 0.25 16 4 C21.86 9.41 24.96 14.37 25.31 22.44 C25.12 29.67 22 34.89 17 40 C11.54 43.6 5.89 44.46 -0.52 43.7 C-6.93 42.24 -10.38 39.19 -14.6 34.25 C-16 32 -16 32 -16 28 C-16.66 28 -17.32 28 -18 28 C-18.33 25.69 -18.66 23.38 -19 21 C-18.34 21 -17.68 21 -17 21 C-16.96 19.85 -16.92 18.69 -16.88 17.5 C-16.21 12.23 -13.69 8.72 -10 5 C-6.19 2.56 -4.55 2 0 2 C0 1.34 0 0.68 0 0 Z " fill="#252837" transform="translate(394,404)"/>
<path d="M0 0 C2.64 0.33 5.28 0.66 8 1 C8 1.66 8 2.32 8 3 C9.02 3.06 9.02 3.06 10.06 3.12 C15.32 4.69 18.68 7.7 21.41 12.46 C24.31 19.31 24.61 25 22 32 C18.98 37.46 15.3 41.73 9.15 43.55 C2.68 44.91 -3.38 44.65 -9.18 41.34 C-13.28 38.33 -16.41 34.98 -17.88 30.06 C-17.94 29.04 -17.94 29.04 -18 28 C-18.66 28 -19.32 28 -20 28 C-19.46 18.78 -17.77 11.77 -11 5 C-7.34 2.81 -4.32 2 0 2 C0 1.34 0 0.68 0 0 Z " fill="#252837" transform="translate(815,531)"/>
<path d="M0 0 C1.98 0 3.96 0 6 0 C6 0.66 6 1.32 6 2 C6.99 1.67 7.98 1.34 9 1 C15.61 3.25 20.04 8.25 23.21 14.32 C25.84 21.31 24.62 27.16 22 34 C19.01 39.12 14.53 41.63 9.06 43.75 C2.55 44.54 -3.27 44.45 -9 41 C-11.69 38.56 -13.86 35.92 -16 33 C-16.68 32.11 -17.36 31.23 -18.06 30.31 C-19.94 23.68 -18.28 16.57 -15.25 10.5 C-10.5 5.22 -7.27 2.44 0 2 C0 1.34 0 0.68 0 0 Z " fill="#252837" transform="translate(444,167)"/>
<path d="M0 0 C0 0.66 0 1.32 0 2 C1.24 2.03 1.24 2.03 2.5 2.06 C8.03 3.55 12.18 7.02 15.18 11.93 C17.81 18.17 17.87 24.29 15.81 30.69 C11.85 37.94 8.74 40.83 0.84 43.37 C-4.78 44.61 -9.55 43.96 -14.69 41.38 C-18.43 38.98 -21.71 35.82 -24 32 C-24 30.68 -24 29.36 -24 28 C-24.66 28 -25.32 28 -26 28 C-26.33 25.69 -26.66 23.38 -27 21 C-26.34 21 -25.68 21 -25 21 C-24.96 19.85 -24.92 18.69 -24.88 17.5 C-24.1 11.3 -20.43 6.97 -15.69 3.12 C-10.57 0.98 -5.54 0 0 0 Z " fill="#252837" transform="translate(582,582)"/>
<path d="M0 0 C11.71 0 11.71 0 15 3 C19.04 7.69 19.43 12.06 19.56 18.12 C19.59 18.82 19.62 19.51 19.64 20.23 C19.62 24.14 19.12 25.85 16.65 28.93 C10.72 33.56 8.82 31.8 0 31 C0 20.77 0 10.54 0 0 Z " fill="#252837" transform="translate(592,289)"/>
<path d="M0 0 C3.65 3.89 3.85 8.88 4 14 C3.81 17.48 3.62 19.23 1.44 21.94 C-2.19 23.52 -5.33 23.17 -9 22 C-12.02 19.94 -13.58 18.42 -14.63 14.88 C-15.44 9.79 -15.08 6.32 -12 2 C-8 -1.45 -5 -1.48 0 0 Z " fill="#262837" transform="translate(772,354)"/>
<path d="M0 0 C4.56 4.62 4.93 8.67 5.22 14.95 C5 18 5 18 3.06 21.38 C-0.46 23.24 -2.23 23.41 -6.07 22.65 C-8.99 21.67 -10.87 20.19 -13 18 C-14.24 14.27 -14.53 10.87 -14 7 C-12.36 3.83 -10.95 1.73 -8.12 -0.44 C-5.02 -1.26 -3.06 -0.96 0 0 Z " fill="#252837" transform="translate(624,354)"/>
<path d="M0 0 C4.55 4.63 4.93 8.66 5.22 14.95 C5 18 5 18 3.06 21.38 C-0.46 23.24 -2.23 23.41 -6.07 22.65 C-8.99 21.67 -10.87 20.19 -13 18 C-14.58 13.27 -14.53 9.44 -12.81 4.75 C-9.41 -0.42 -5.97 -2.03 0 0 Z " fill="#252837" transform="translate(621,409)"/>
<path d="M0 0 C2.79 3.39 4.88 6.52 5 11 C4.02 12.6 4.02 12.6 2 14 C-0.79 14.38 -3.39 14.6 -6.19 14.69 C-6.94 14.72 -7.69 14.76 -8.46 14.79 C-10.31 14.87 -12.15 14.94 -14 15 C-12.73 19.82 -12.73 19.82 -9 23 C-6.03 23.46 -6.03 23.46 -2.81 23.62 C-1.73 23.7 -0.64 23.77 0.48 23.85 C1.73 23.93 1.73 23.93 3 24 C2.67 24.66 2.34 25.32 2 26 C-1.62 27.21 -4.19 27.32 -8 27 C-11.82 24.94 -14.95 22.88 -17 19 C-17.88 15.11 -18.28 11.85 -17 8 C-16.34 8 -15.68 8 -15 8 C-14.75 7.22 -14.5 6.43 -14.25 5.62 C-12.85 2.68 -11.99 2.1 -9 1 C-9 0.34 -9 -0.32 -9 -1 C-5.11 -2.3 -3.68 -1.73 0 0 Z " fill="#E6A49A" transform="translate(675,407)"/>
<path d="M0 0 C3.62 5.29 3.36 10.22 3.19 16.38 C3.17 17.77 3.17 17.77 3.15 19.18 C3.11 21.46 3.06 23.73 3 26 C2.34 26 1.68 26 1 26 C1 25.34 1 24.68 1 24 C-0.01 24.52 -1.02 25.03 -2.06 25.56 C-6.02 27.25 -8.8 27.19 -13 26 C-15.44 24.19 -15.44 24.19 -17 22 C-17 20.68 -17 19.36 -17 18 C-16.34 18 -15.68 18 -15 18 C-14.67 16.68 -14.34 15.36 -14 14 C-13.36 13.88 -12.72 13.75 -12.06 13.62 C-11.38 13.42 -10.7 13.21 -10 13 C-9.67 12.34 -9.34 11.68 -9 11 C-8.34 11.33 -7.68 11.66 -7 12 C-6.67 11.34 -6.34 10.68 -6 10 C-4.68 10.33 -3.36 10.66 -2 11 C-2 10.34 -2 9.68 -2 9 C-1.34 9 -0.68 9 0 9 C-0.99 6.69 -1.98 4.38 -3 2 C-4.26 2.14 -5.52 2.29 -6.81 2.44 C-7.87 2.56 -7.87 2.56 -8.96 2.68 C-11.19 2.97 -11.19 2.97 -14 4 C-14 3.34 -14 2.68 -14 2 C-12.68 1.67 -11.36 1.34 -10 1 C-10 0.34 -10 -0.32 -10 -1 C-6.17 -2.47 -3.63 -1.78 0 0 Z " fill="#E7A59B" transform="translate(679,297)"/>
<path d="M0 0 C3.59 3.33 3.79 7.34 4 12 C4.07 16.67 4.06 21.33 4 26 C3.34 26 2.68 26 2 26 C2 25.34 2 24.68 2 24 C0.99 24.52 -0.02 25.03 -1.06 25.56 C-5.01 27.25 -7.8 27.11 -12 26 C-14.44 24.81 -14.44 24.81 -16 23 C-16.56 20.06 -16.56 20.06 -16 17 C-12.88 13.7 -10.39 12.73 -6 12 C-5.67 11.34 -5.34 10.68 -5 10 C-3.68 10.33 -2.36 10.66 -1 11 C-1 10.34 -1 9.68 -1 9 C-0.34 9 0.32 9 1 9 C0.01 6.69 -0.98 4.38 -2 2 C-3.26 2.14 -4.52 2.29 -5.81 2.44 C-6.87 2.56 -6.87 2.56 -7.96 2.68 C-10.19 2.97 -10.19 2.97 -13 4 C-13 3.34 -13 2.68 -13 2 C-11.68 1.67 -10.36 1.34 -9 1 C-9 0.34 -9 -0.32 -9 -1 C-5.38 -2.34 -3.37 -1.81 0 0 Z " fill="#E7A59B" transform="translate(636,297)"/>
<path d="M0 0 C3.62 5.29 3.36 10.22 3.19 16.38 C3.17 17.77 3.17 17.77 3.15 19.18 C3.11 21.46 3.06 23.73 3 26 C2.34 26 1.68 26 1 26 C1 25.34 1 24.68 1 24 C-0.01 24.52 -1.02 25.03 -2.06 25.56 C-6.02 27.25 -8.8 27.19 -13 26 C-15.44 24.19 -15.44 24.19 -17 22 C-17 20.68 -17 19.36 -17 18 C-16.34 18 -15.68 18 -15 18 C-14.67 16.68 -14.34 15.36 -14 14 C-13.36 13.88 -12.72 13.75 -12.06 13.62 C-11.38 13.42 -10.7 13.21 -10 13 C-9.67 12.34 -9.34 11.68 -9 11 C-8.34 11.33 -7.68 11.66 -7 12 C-6.67 11.34 -6.34 10.68 -6 10 C-4.68 10.33 -3.36 10.66 -2 11 C-2 10.34 -2 9.68 -2 9 C-1.34 9 -0.68 9 0 9 C-0.99 6.69 -1.98 4.38 -3 2 C-4.26 2.14 -5.52 2.29 -6.81 2.44 C-7.87 2.56 -7.87 2.56 -8.96 2.68 C-11.19 2.97 -11.19 2.97 -14 4 C-14 3.34 -14 2.68 -14 2 C-12.68 1.67 -11.36 1.34 -10 1 C-10 0.34 -10 -0.32 -10 -1 C-6.17 -2.47 -3.63 -1.78 0 0 Z " fill="#E7A59B" transform="translate(716,352)"/>
<path d="M0 0 C3.98 4.62 3.55 10.02 3.69 15.81 C3.74 17.28 3.74 17.28 3.79 18.78 C3.87 21.19 3.94 23.59 4 26 C3.34 26 2.68 26 2 26 C2 25.34 2 24.68 2 24 C0.97 24.5 -0.06 24.99 -1.12 25.5 C-4.59 26.96 -7.21 27.58 -11 27 C-13.86 25.22 -15.58 24.02 -16.88 20.88 C-17 19 -17 19 -16 17 C-15.34 17 -14.68 17 -14 17 C-13.69 16.07 -13.69 16.07 -13.38 15.12 C-11.42 12.1 -9.43 11.82 -6 11 C-4.68 11 -3.36 11 -2 11 C-2 10.34 -2 9.68 -2 9 C-1.34 9 -0.68 9 0 9 C-0.66 7.02 -1.32 5.04 -2 3 C-6.29 1.74 -8.88 2.37 -13 4 C-13.33 3.34 -13.66 2.68 -14 2 C-12.35 1.67 -10.7 1.34 -9 1 C-9 0.34 -9 -0.32 -9 -1 C-5.14 -2.29 -3.66 -1.68 0 0 Z " fill="#E7A59B" transform="translate(532,352)"/>
<path d="M0 0 C2.62 1.25 2.62 1.25 4.62 3 C5.28 3.41 5.95 3.82 6.62 4.25 C9.36 3.54 9.36 3.54 11.62 2.25 C11.62 1.59 11.62 0.93 11.62 0.25 C14.64 -0.68 15.49 -0.79 18.62 0.25 C21.7 4.62 22.76 8.3 22.72 13.58 C22.72 14.38 22.72 15.18 22.71 16 C22.7 17.24 22.7 17.24 22.69 18.5 C22.68 19.34 22.68 20.18 22.67 21.05 C22.66 23.11 22.64 25.18 22.62 27.25 C21.97 27.25 21.3 27.25 20.62 27.25 C18.76 23.51 19.25 18.78 19.11 14.63 C18.91 10.43 18.52 7.09 16.62 3.25 C12.71 3.78 10.23 4.45 6.62 6.25 C6.29 13.18 5.97 20.11 5.62 27.25 C2.62 25.25 2.62 25.25 2.21 23.23 C2.19 22.43 2.17 21.62 2.15 20.79 C2.12 19.9 2.09 19.02 2.05 18.11 C2.03 16.73 2.03 16.73 2 15.31 C1.95 13.49 1.89 11.67 1.84 9.85 C1.82 9.04 1.8 8.23 1.78 7.39 C1.7 5.06 1.7 5.06 0.62 2.25 C-1.01 2.96 -1.01 2.96 -2.69 3.69 C-4.91 4.65 -7.07 5.48 -9.38 6.25 C-9.71 13.18 -10.03 20.11 -10.38 27.25 C-11.03 27.25 -11.7 27.25 -12.38 27.25 C-13.65 24.69 -13.49 22.88 -13.47 20.02 C-13.47 18.99 -13.47 17.96 -13.46 16.9 C-13.45 15.82 -13.45 14.74 -13.44 13.62 C-13.43 12.54 -13.43 11.45 -13.42 10.33 C-13.41 7.64 -13.4 4.94 -13.38 2.25 C-12.38 2.25 -11.39 2.25 -10.38 2.25 C-10.04 2.91 -9.72 3.57 -9.38 4.25 C-8.72 3.59 -8.05 2.93 -7.38 2.25 C-6.38 2.25 -5.39 2.25 -4.38 2.25 C-4.38 1.59 -4.38 0.93 -4.38 0.25 C-2.38 -0.75 -2.38 -0.75 0 0 Z " fill="#E7A59B" transform="translate(669.375,350.75)"/>
<path d="M0 0 C6.06 0.14 10.21 1.21 14.62 5.62 C18.72 12.15 19.45 19.11 17.81 26.59 C16.31 31.16 14.49 33.7 10.31 36.31 C6.92 37.44 4.26 37.45 0.69 37.44 C-0.48 37.44 -1.65 37.44 -2.85 37.45 C-5.69 37.31 -5.69 37.31 -6.69 36.31 C-6.8 33.81 -6.85 31.35 -6.86 28.85 C-6.86 28.1 -6.86 27.35 -6.87 26.58 C-6.87 24.99 -6.87 23.41 -6.87 21.82 C-6.87 19.39 -6.89 16.96 -6.91 14.53 C-6.92 12.99 -6.92 11.45 -6.92 9.91 C-6.93 9.18 -6.93 8.45 -6.94 7.7 C-6.91 1.82 -5.96 0.03 0 0 Z M-3.69 3.31 C-3.69 13.54 -3.69 23.77 -3.69 34.31 C7.13 36.15 7.13 36.15 12 33.75 C14.91 30.68 15.16 29.54 15.31 25.31 C15.4 23.92 15.4 23.92 15.5 22.5 C15.77 15.83 15.49 11.62 11.31 6.31 C6.48 1.91 3.67 3.31 -3.69 3.31 Z " fill="#E7A59B" transform="translate(595.6875,285.6875)"/>
<path d="M0 0 C5.06 0.09 8.43 0.8 12.81 3.31 C15.64 7.55 15.6 11.34 14.81 16.31 C12.16 19.93 10.16 21.54 5.81 22.31 C4.06 22.38 2.31 22.4 0.56 22.38 C-1 22.35 -2.57 22.33 -4.19 22.31 C-4.19 27.26 -4.19 32.21 -4.19 37.31 C-4.85 37.31 -5.51 37.31 -6.19 37.31 C-7.68 34.32 -7.35 31.25 -7.36 27.97 C-7.36 27.24 -7.36 26.52 -7.37 25.77 C-7.37 24.24 -7.37 22.71 -7.37 21.17 C-7.37 18.82 -7.39 16.47 -7.41 14.12 C-7.42 12.63 -7.42 11.14 -7.42 9.66 C-7.43 8.95 -7.43 8.25 -7.44 7.52 C-7.41 1.35 -6.08 0.03 0 0 Z M-4.19 3.31 C-4.19 8.59 -4.19 13.87 -4.19 19.31 C-0.56 19.64 3.07 19.97 6.81 20.31 C6.81 19.65 6.81 18.99 6.81 18.31 C7.8 18.64 8.79 18.97 9.81 19.31 C11.88 17.05 12.81 15.93 12.81 12.8 C12.62 11.94 12.44 11.08 12.25 10.19 C12.08 9.32 11.92 8.45 11.75 7.55 C11 5.22 11 5.22 9.08 4.02 C6.31 3.16 3.96 3.12 1.06 3.19 C-1.54 3.25 -1.54 3.25 -4.19 3.31 Z " fill="#E7A59B" transform="translate(567.1875,395.6875)"/>
<path d="M0 0 C5.46 4.44 8.36 8.23 9.81 15.25 C10.4 21.72 9.19 26.94 5.41 32.21 C1.04 37.1 -3.67 39.51 -10.19 40.25 C-16.65 39.95 -22.31 38.67 -27.19 34.25 C-32.09 27.86 -34.34 23.43 -34.19 15.25 C-33.53 15.25 -32.87 15.25 -32.19 15.25 C-32.16 13.77 -32.16 13.77 -32.12 12.25 C-31.36 7.01 -28.12 3.59 -24.19 0.25 C-21.59 -1.18 -19.06 -2.04 -16.19 -2.75 C-15.34 -3 -14.5 -3.25 -13.62 -3.5 C-8.18 -4.06 -4.41 -3.19 0 0 Z M-26.13 4.23 C-31.14 10.88 -32.1 15.89 -31.19 24.25 C-29.05 30.14 -24.77 34.48 -19.19 37.25 C-12.74 38.89 -6.79 38.65 -0.94 35.5 C2.93 32.33 5.94 28.91 7.81 24.25 C8.05 21.2 8.05 21.2 7.94 18 C7.92 16.92 7.9 15.84 7.88 14.73 C7.86 13.91 7.84 13.09 7.81 12.25 C7.15 12.25 6.49 12.25 5.81 12.25 C5.73 11.53 5.65 10.81 5.56 10.06 C4.59 6.42 3.57 4.87 0.81 2.25 C-8.33 -2.51 -18.24 -3.79 -26.13 4.23 Z " fill="#E7A59B" transform="translate(697.1875,91.75)"/>
<path d="M0 0 C6.36 -0.45 10.75 0.25 16 4 C21.86 9.41 24.96 14.37 25.31 22.44 C25.12 29.67 22 34.89 17 40 C11.54 43.6 5.89 44.46 -0.52 43.7 C-6.93 42.24 -10.38 39.19 -14.6 34.25 C-16 32 -16 32 -16 28 C-16.66 28 -17.32 28 -18 28 C-18.33 25.69 -18.66 23.38 -19 21 C-18.34 21 -17.68 21 -17 21 C-16.96 19.85 -16.92 18.69 -16.88 17.5 C-16.21 12.23 -13.69 8.72 -10 5 C-6.19 2.56 -4.55 2 0 2 C0 1.34 0 0.68 0 0 Z M-11.25 9.44 C-15.32 14.33 -16.47 18.07 -16.3 24.41 C-15.59 30.5 -12.93 34.56 -8.25 38.44 C-4.21 41.19 -0.85 42.09 4 42 C4.67 42 5.34 42 6.04 42 C11.39 41.68 15.31 39.93 19 36 C22.58 30.65 25.07 25.53 24 19 C21.76 11.77 18.64 7.83 12.18 3.89 C3.69 0.42 -5.34 2.85 -11.25 9.44 Z " fill="#E7A59B" transform="translate(394,404)"/>
<path d="M0 0 C5.63 6.39 7.32 10.99 7.22 19.47 C6.72 25.21 4.05 29.95 0 34 C-6.11 38.53 -12.6 38.97 -20 38 C-26.99 36.03 -31.65 31.16 -35.16 24.95 C-36.2 22.53 -36.07 20.6 -36 18 C-36.33 17.34 -36.66 16.68 -37 16 C-36.34 16 -35.68 16 -35 16 C-34.92 14.8 -34.84 13.61 -34.75 12.38 C-34 6.65 -31.36 2.89 -26.94 -0.75 C-18.42 -6.44 -7.89 -6.41 0 0 Z M-30.77 6.22 C-34.32 11.36 -34.91 15.83 -34 22 C-31.86 27.17 -28.64 30.87 -24 34 C-22.89 34.87 -22.89 34.87 -21.75 35.75 C-17.14 37.85 -12.69 37.82 -7.85 36.34 C-1.76 33.64 2.19 29.28 5.38 23.5 C7.05 16.78 5.69 12.25 2.49 6.3 C-0.53 1.64 -4.56 -1.58 -10 -3 C-19.14 -3.9 -25.03 -0.84 -30.77 6.22 Z " fill="#E7A59B" transform="translate(887,274)"/>
<path d="M0 0 C1.98 0 3.96 0 6 0 C6 0.66 6 1.32 6 2 C6.99 1.67 7.98 1.34 9 1 C15.61 3.25 20.04 8.25 23.21 14.32 C25.84 21.31 24.62 27.16 22 34 C19.01 39.12 14.53 41.63 9.06 43.75 C2.55 44.54 -3.27 44.45 -9 41 C-11.69 38.56 -13.86 35.92 -16 33 C-16.68 32.11 -17.36 31.23 -18.06 30.31 C-19.94 23.68 -18.28 16.57 -15.25 10.5 C-10.5 5.22 -7.27 2.44 0 2 C0 1.34 0 0.68 0 0 Z M-12.31 9.31 C-15.79 14.85 -17.71 19.4 -17 26 C-15.01 31.78 -12.57 36.15 -7.56 39.75 C-1.69 41.81 5.11 43.09 11.22 41.38 C16.21 38.74 19.57 34.52 22.31 29.69 C23.94 23.32 23.64 17.65 20.41 11.86 C17.23 7.66 12.97 4.66 8 3 C-0.17 2.12 -6.42 3.42 -12.31 9.31 Z " fill="#E7A59B" transform="translate(444,167)"/>
<path d="M0 0 C0 0.66 0 1.32 0 2 C1.24 2.03 1.24 2.03 2.5 2.06 C8.03 3.55 12.18 7.02 15.18 11.93 C17.81 18.17 17.87 24.29 15.81 30.69 C11.85 37.94 8.74 40.83 0.84 43.37 C-4.78 44.61 -9.55 43.96 -14.69 41.38 C-18.43 38.98 -21.71 35.82 -24 32 C-24 30.68 -24 29.36 -24 28 C-24.66 28 -25.32 28 -26 28 C-26.33 25.69 -26.66 23.38 -27 21 C-26.34 21 -25.68 21 -25 21 C-24.96 19.85 -24.92 18.69 -24.88 17.5 C-24.1 11.3 -20.43 6.97 -15.69 3.12 C-10.57 0.98 -5.54 0 0 0 Z M-16.98 6.84 C-22.15 12.56 -24.49 16.62 -24.32 24.4 C-23.67 29.72 -21.44 33.56 -17.69 37.31 C-11.64 41.11 -6.13 43.3 1 42 C7.61 39.22 12.48 34.54 15.31 27.94 C16.73 21.89 15.7 17.51 13 12 C9.75 6.86 5.84 3.92 -0.1 2.5 C-6.68 1.42 -12 2.21 -16.98 6.84 Z " fill="#E7A59B" transform="translate(582,582)"/>
<path d="M0 0 C2.64 0.33 5.28 0.66 8 1 C8 1.66 8 2.32 8 3 C9.02 3.06 9.02 3.06 10.06 3.12 C15.32 4.69 18.68 7.7 21.41 12.46 C24.31 19.31 24.61 25 22 32 C18.98 37.46 15.3 41.73 9.15 43.55 C2.68 44.91 -3.38 44.65 -9.18 41.34 C-13.28 38.33 -16.41 34.98 -17.88 30.06 C-17.94 29.04 -17.94 29.04 -18 28 C-18.66 28 -19.32 28 -20 28 C-19.46 18.78 -17.77 11.77 -11 5 C-7.34 2.81 -4.32 2 0 2 C0 1.34 0 0.68 0 0 Z M-16 14 C-18.49 19.1 -18.18 23.58 -17 29 C-14.7 34.97 -11.21 39.25 -5.31 41.88 C-0.45 43.48 4.07 43.21 9 42 C14.85 39.02 19.51 34.14 22 28 C22.24 25.41 22.24 25.41 22.12 22.75 C22.11 21.86 22.09 20.97 22.07 20.05 C22.05 19.37 22.02 18.7 22 18 C21.34 18 20.68 18 20 18 C20.1 17.3 20.21 16.6 20.31 15.88 C19.87 11.83 17.94 9.61 15 7 C10.15 3.5 5.42 2.29 -0.54 2.55 C-7.38 3.8 -12.16 8.47 -16 14 Z " fill="#E7A59B" transform="translate(815,531)"/>
<path d="M0 0 C3.27 1.8 3.99 2.93 5.5 6.38 C5.86 9.99 5.78 13.56 5.69 17.19 C5.67 18.66 5.67 18.66 5.65 20.15 C5.61 22.56 5.56 24.97 5.5 27.38 C4.51 27.05 3.52 26.71 2.5 26.38 C2.47 25.75 2.45 25.13 2.42 24.49 C2.31 21.68 2.19 18.87 2.06 16.06 C2.02 15.09 1.98 14.11 1.94 13.1 C1.9 12.17 1.86 11.23 1.82 10.26 C1.78 9.4 1.74 8.53 1.71 7.64 C1.57 5.21 1.57 5.21 0.5 2.38 C-1.15 2.99 -2.79 3.62 -4.44 4.25 C-5.35 4.6 -6.27 4.95 -7.21 5.3 C-9.65 6.16 -9.65 6.16 -10.5 8.38 C-10.65 9.82 -10.75 11.27 -10.82 12.73 C-10.86 13.58 -10.9 14.43 -10.94 15.3 C-10.98 16.19 -11.02 17.08 -11.06 18 C-11.11 18.9 -11.15 19.79 -11.19 20.72 C-11.3 22.94 -11.4 25.16 -11.5 27.38 C-12.16 27.38 -12.82 27.38 -13.5 27.38 C-14.78 24.82 -14.61 23.01 -14.6 20.15 C-14.59 19.12 -14.59 18.09 -14.59 17.02 C-14.58 15.94 -14.57 14.86 -14.56 13.75 C-14.56 12.66 -14.55 11.57 -14.55 10.45 C-14.54 7.76 -14.52 5.07 -14.5 2.38 C-11.5 2.38 -8.5 2.38 -5.5 2.38 C-5.5 1.71 -5.5 1.06 -5.5 0.38 C-2.5 -0.62 -2.5 -0.62 0 0 Z " fill="#E7A59B" transform="translate(558.5,350.625)"/>
<path d="M0 0 C4.91 5.04 5.35 9.49 5.29 16.27 C4.89 20.08 3.58 22.2 1 25 C-2.21 27.35 -5.1 27.47 -9 27 C-12.8 24.92 -15.96 22.87 -18 19 C-18.89 15.11 -19.78 10.7 -18 7 C-15.39 4.05 -13.76 2.25 -10 1 C-10 0.34 -10 -0.32 -10 -1 C-5.94 -2.35 -3.95 -1.52 0 0 Z M-13 4 C-15.89 8.38 -16.57 11.79 -16 17 C-14.35 20.54 -13.28 21.81 -10 24 C-4.26 25.41 -4.26 25.41 1.06 23.38 C4.08 18.12 3.44 12.79 2 7 C-0.17 3.72 -1.19 2.28 -4.94 1 C-8.69 1 -10.13 1.59 -13 4 Z " fill="#E7A59B" transform="translate(623,407)"/>
<path d="M0 0 C3.48 2 4.07 3.68 5.5 7.44 C5.85 10.91 5.78 14.33 5.69 17.81 C5.67 19.2 5.67 19.2 5.65 20.62 C5.61 22.89 5.56 25.17 5.5 27.44 C4.84 27.44 4.18 27.44 3.5 27.44 C2.36 25.15 2.33 23.73 2.25 21.19 C2.22 20.35 2.19 19.52 2.15 18.65 C2.09 16.89 2.04 15.12 1.98 13.36 C1.93 12.1 1.93 12.1 1.88 10.82 C1.85 10.05 1.83 9.28 1.8 8.49 C1.6 6.13 1.6 6.13 -0.5 3.44 C-4.6 4.01 -7.57 4.86 -11.5 6.44 C-11.5 13.37 -11.5 20.3 -11.5 27.44 C-12.16 27.44 -12.82 27.44 -13.5 27.44 C-14.78 24.88 -14.61 23.07 -14.6 20.21 C-14.59 19.18 -14.59 18.15 -14.59 17.09 C-14.58 16.01 -14.57 14.93 -14.56 13.81 C-14.56 12.72 -14.55 11.64 -14.55 10.52 C-14.54 7.82 -14.52 5.13 -14.5 2.44 C-13.51 2.44 -12.52 2.44 -11.5 2.44 C-11.17 3.1 -10.84 3.76 -10.5 4.44 C-9.84 3.78 -9.18 3.12 -8.5 2.44 C-7.51 2.44 -6.52 2.44 -5.5 2.44 C-5.5 1.78 -5.5 1.12 -5.5 0.44 C-2.5 -0.56 -2.5 -0.56 0 0 Z " fill="#E7A59B" transform="translate(800.5,350.5625)"/>
<path d="M0 0 C4 3.91 5.34 8.11 5.56 13.62 C5.33 18.43 4.34 21.38 1 25 C-2.21 27.35 -5.1 27.47 -9 27 C-12.79 24.92 -16 22.89 -18 19 C-18.86 14.72 -19.39 11.18 -18 7 C-13.68 2.23 -13.68 2.23 -10 1 C-10 0.34 -10 -0.32 -10 -1 C-5.85 -2.38 -4.01 -1.73 0 0 Z M-13 4 C-15.95 7.56 -16.47 10.58 -16.29 15.07 C-15.86 17.92 -14.78 19.76 -13 22 C-9.42 24.39 -6.26 25.27 -2 25 C1.35 23.57 1.35 23.57 3 20 C3.41 14.27 3.35 9.03 0.12 4.16 C-1.89 1.79 -1.89 1.79 -4.94 1 C-8.66 1 -10.12 1.67 -13 4 Z " fill="#E7A59B" transform="translate(626,352)"/>
<path d="M0 0 C3.96 3.43 5.04 7.42 5.87 12.43 C6.08 16.51 5.24 19.59 3 23 C-0.03 25.69 -2.01 26.83 -6 27.5 C-10.61 26.73 -13.5 24.45 -16.81 21.25 C-18.56 17.94 -19.03 14.73 -19 11 C-18.06 8 -18.06 8 -17 6 C-16.34 6 -15.68 6 -15 6 C-14.73 5.36 -14.46 4.72 -14.19 4.06 C-13 2 -13 2 -10 1 C-10 0.34 -10 -0.32 -10 -1 C-5.94 -2.35 -3.95 -1.52 0 0 Z M-14 5 C-16.49 8.79 -16.23 12.5 -15.59 16.84 C-14.61 20.43 -13.04 21.93 -10 24 C-7.24 24.99 -4.92 25.38 -2 25 C1.21 23.29 1.21 23.29 3 20 C4.16 14.01 2.71 9.31 0 4 C-0.33 3.34 -0.66 2.68 -1 2 C-6.76 0.42 -9.53 1.05 -14 5 Z " fill="#E7A59B" transform="translate(773,352)"/>
<path d="M0 0 C3.46 -0.03 6.92 -0.05 10.38 -0.06 C11.36 -0.07 12.34 -0.08 13.36 -0.09 C14.77 -0.09 14.77 -0.09 16.21 -0.1 C17.51 -0.11 17.51 -0.11 18.85 -0.11 C21 0 21 0 23 1 C23 1.66 23 2.32 23 3 C19.7 3.33 16.4 3.66 13 4 C12.67 14.89 12.34 25.78 12 37 C11.34 37 10.68 37 10 37 C8.52 34.04 8.88 31.05 8.9 27.8 C8.9 27.1 8.91 26.39 8.91 25.66 C8.91 23.4 8.92 21.14 8.94 18.88 C8.94 17.34 8.95 15.81 8.95 14.28 C8.96 10.52 8.98 6.76 9 3 C6.03 3 3.06 3 0 3 C0 2.01 0 1.02 0 0 Z " fill="#E7A59B" transform="translate(474,341)"/>
<path d="M0 0 C5.17 0.56 9.39 1.74 14.25 3.72 C14.9 3.99 15.56 4.25 16.23 4.53 C18.3 5.36 20.37 6.21 22.44 7.06 C23.85 7.64 25.26 8.21 26.68 8.78 C30.12 10.18 33.56 11.59 37 13 C36.67 13.66 36.34 14.32 36 15 C24.45 10.38 12.9 5.76 1 1 C0.67 2.65 0.34 4.3 0 6 C-0.87 8.38 -1.77 10.71 -2.72 13.05 C-2.99 13.71 -3.25 14.37 -3.53 15.05 C-4.37 17.14 -5.21 19.22 -6.06 21.31 C-6.64 22.73 -7.21 24.16 -7.78 25.58 C-9.18 29.06 -10.59 32.53 -12 36 C-11.47 35.7 -10.94 35.4 -10.39 35.09 C-9.68 34.71 -8.98 34.33 -8.25 33.94 C-7.55 33.55 -6.86 33.17 -6.14 32.78 C-4 32 -4 32 -1.91 32.09 C0.8 33.38 1.46 34.97 2.83 37.62 C3.32 38.56 3.81 39.49 4.31 40.46 C4.81 41.44 5.3 42.42 5.81 43.44 C6.58 44.91 6.58 44.91 7.37 46.41 C10.14 51.79 10.14 51.79 11 54 C10.67 54.66 10.34 55.32 10 56 C1.55 41.4 1.55 41.4 -2 34 C-8.44 36.48 -8.44 36.48 -15 39 C-13.65 33.95 -11.96 29.15 -9.96 24.32 C-9.68 23.62 -9.39 22.92 -9.1 22.19 C-8.19 19.98 -7.28 17.77 -6.38 15.56 C-5.76 14.05 -5.14 12.54 -4.52 11.03 C-3.02 7.35 -1.51 3.68 0 0 Z " fill="#E7A59B" transform="translate(417,481)"/>
<path d="M0 0 C2.48 0.99 2.48 0.99 5 2 C4.34 2.66 3.68 3.32 3 4 C1.68 4 0.36 4 -1 4 C-1.66 7.3 -2.32 10.6 -3 14 C-0.03 14.5 -0.03 14.5 3 15 C3 15.66 3 16.32 3 17 C1.02 17 -0.96 17 -3 17 C-3 24.92 -3 32.84 -3 41 C-3.66 41 -4.32 41 -5 41 C-6.25 38.5 -6.11 36.79 -6.1 33.99 C-6.09 33.01 -6.09 32.02 -6.09 31 C-6.08 29.97 -6.07 28.94 -6.06 27.88 C-6.06 26.83 -6.05 25.79 -6.05 24.72 C-6.04 22.15 -6.02 19.57 -6 17 C-6.66 17 -7.32 17 -8 17 C-8 16.01 -8 15.02 -8 14 C-7.34 14 -6.68 14 -6 14 C-6.12 12.14 -6.12 12.14 -6.25 10.25 C-6.26 6.98 -6.17 6.23 -4.12 3.5 C-2 2 -2 2 0 2 C0 1.34 0 0.68 0 0 Z " fill="#E7A59B" transform="translate(602,337)"/>
<path d="M0 0 C2.19 2.7 2.49 4.55 2.62 8 C1.69 10.88 1.69 10.88 0.62 13 C-6 14.25 -6 14.25 -9.38 12 C-9.67 9.4 -9.67 9.4 -9.56 6.38 C-9.54 5.37 -9.51 4.37 -9.48 3.34 C-9.45 2.57 -9.41 1.79 -9.38 1 C-3.08 -1.3 -3.08 -1.3 0 0 Z " fill="#E7A59B" transform="translate(175.375,422)"/>
<path d="M0 0 C0 0.66 0 1.32 0 2 C0.66 2 1.32 2 2 2 C1.67 2.66 1.34 3.32 1 4 C-0.09 3.79 -1.19 3.59 -2.31 3.38 C-6.08 2.6 -6.08 2.6 -9 5 C-9 6.32 -9 7.64 -9 9 C-8.31 9.31 -7.63 9.63 -6.92 9.95 C-6.02 10.38 -5.12 10.81 -4.19 11.25 C-2.85 11.88 -2.85 11.88 -1.48 12.52 C1.15 14.09 2.44 15.38 4 18 C4.63 23.17 4.63 23.17 2.62 25.81 C-0.93 28.41 -3.63 28.36 -8 28 C-11.44 26 -11.44 26 -14 24 C-10.15 22.72 -7.98 23.61 -4.16 24.62 C-1.83 25.21 -1.83 25.21 1 24 C0.67 21.36 0.34 18.72 0 16 C-0.6 15.82 -1.21 15.64 -1.83 15.45 C-10.63 12.68 -10.63 12.68 -13 10 C-13.25 7.31 -13.25 7.31 -13 5 C-12.34 5 -11.68 5 -11 5 C-10.67 4.01 -10.34 3.02 -10 2 C-9.34 2 -8.68 2 -8 2 C-8 1.34 -8 0.68 -8 0 C-4.71 -1.1 -3.29 -0.8 0 0 Z " fill="#E7A59B" transform="translate(585,351)"/>
<path d="M0 0 C3.27 1.85 3.83 4.59 4.88 8.06 C4 11.99 3.27 12.8 -0.12 15.06 C-2.69 15.31 -2.69 15.31 -5.12 15.06 C-7.12 13.06 -7.12 13.06 -7.32 10.46 C-7.3 9.46 -7.27 8.47 -7.25 7.44 C-7.23 6.43 -7.21 5.43 -7.2 4.4 C-7.17 3.63 -7.15 2.86 -7.12 2.06 C-2.39 0.07 -2.39 0.07 0 0 Z " fill="#E7A59B" transform="translate(220.125,420.9375)"/>
<path d="M0 0 C0 0.66 0 1.32 0 2 C0.99 2.33 1.98 2.66 3 3 C-0.5 4.17 -2.41 3.6 -6 3 C-6.99 3.33 -7.98 3.66 -9 4 C-10.22 6.5 -10.22 6.5 -11 9 C-10.34 9.25 -9.68 9.5 -9 9.75 C-6.58 10.76 -4.19 11.78 -1.81 12.88 C-1.14 13.18 -0.46 13.49 0.23 13.8 C2.43 15.29 3.09 16.53 4 19 C3.86 22.39 3.62 24.29 1.38 26.88 C-1.97 28.46 -4.34 28.38 -8 28 C-11.44 26.5 -11.44 26.5 -14 25 C-14 24.34 -14 23.68 -14 23 C-13.08 23.16 -12.17 23.31 -11.23 23.47 C-10.04 23.67 -8.85 23.86 -7.62 24.06 C-6.44 24.26 -5.26 24.46 -4.04 24.66 C-1.09 25.27 -1.09 25.27 1 24 C0.7 21.03 0.51 19.51 -1 17 C-3.74 15.23 -6.49 13.88 -9.47 12.55 C-12.48 10.71 -13.06 9.34 -14 6 C-12.71 4.62 -11.37 3.29 -10 2 C-9.34 2 -8.68 2 -8 2 C-8 1.34 -8 0.68 -8 0 C-4.71 -1.1 -3.29 -0.8 0 0 Z " fill="#E7A59B" transform="translate(698,406)"/>
<path d="M0 0 C0.99 0 1.98 0 3 0 C3 2.31 3 4.62 3 7 C5.31 7.33 7.62 7.66 10 8 C10 8.66 10 9.32 10 10 C7.69 10 5.38 10 3 10 C3 16.93 3 23.86 3 31 C5.64 31.66 8.28 32.32 11 33 C10.67 33.66 10.34 34.32 10 35 C3.54 34.39 3.54 34.39 1.29 32.76 C-0.42 30.43 -0.35 28.99 -0.29 26.11 C-0.28 25.18 -0.27 24.24 -0.26 23.27 C-0.24 22.3 -0.21 21.32 -0.19 20.31 C-0.17 19.32 -0.16 18.34 -0.15 17.32 C-0.11 14.88 -0.06 12.44 0 10 C-0.66 10 -1.32 10 -2 10 C-2 9.01 -2 8.02 -2 7 C-1.34 7 -0.68 7 0 7 C0 4.69 0 2.38 0 0 Z " fill="#E7A59B" transform="translate(728,344)"/>
<path d="M0 0 C2.51 3.77 2.75 6.57 2 11 C-0.13 13.53 -1.36 13.92 -4.62 14.31 C-7 14 -7 14 -9 12 C-9.2 9.4 -9.2 9.4 -9.12 6.38 C-9.11 5.37 -9.09 4.37 -9.07 3.34 C-9.05 2.57 -9.02 1.79 -9 1 C-3.26 -1.46 -3.26 -1.46 0 0 Z " fill="#E7A59B" transform="translate(496,652)"/>
<path d="M0 0 C0.77 8.02 0.77 8.02 -2.06 11.62 C-5.86 13.4 -8 13.06 -12 12 C-14 10 -14 10 -14.44 7.62 C-14 5 -14 5 -11.81 2.75 C-7.7 0.19 -4.81 0 0 0 Z " fill="#252837" transform="translate(637,309)"/>
<path d="M0 0 C0.99 0 1.98 0 3 0 C3 2.31 3 4.62 3 7 C5.31 7.33 7.62 7.66 10 8 C10 8.66 10 9.32 10 10 C7.69 10.33 5.38 10.66 3 11 C3 17.6 3 24.2 3 31 C5.31 31.66 7.62 32.32 10 33 C9.67 33.66 9.34 34.32 9 35 C3.54 34.39 3.54 34.39 1.19 32.69 C-0.94 29.66 -1.13 26.51 -1.1 22.89 C-1.09 22.14 -1.09 21.38 -1.09 20.61 C-1.08 19.83 -1.07 19.05 -1.06 18.25 C-1.06 17.46 -1.05 16.66 -1.05 15.85 C-1.04 13.9 -1.02 11.95 -1 10 C-1.66 10 -2.32 10 -3 10 C-3 9.01 -3 8.02 -3 7 C-2.01 7 -1.02 7 0 7 C0 4.69 0 2.38 0 0 Z " fill="#E7A59B" transform="translate(649,289)"/>
<path d="M0 0 C0.99 0 1.98 0 3 0 C3 0.66 3 1.32 3 2 C3.99 2.33 4.98 2.66 6 3 C3.67 3.78 1.39 4.42 -1 5 C-1 5.99 -1 6.98 -1 8 C0.18 8.15 0.18 8.15 1.38 8.31 C4 9 4 9 6 12 C5.94 15.06 5.94 15.06 5 18 C2.62 19.44 2.62 19.44 0 20 C-0.99 19.67 -1.98 19.34 -3 19 C-3 18.34 -3 17.68 -3 17 C-3.66 17 -4.32 17 -5 17 C-6.6 13.8 -6.5 10.47 -6 7 C-4.12 4 -4.12 4 -2 2 C-1.34 2 -0.68 2 0 2 C0 1.34 0 0.68 0 0 Z " fill="#E7A59B" transform="translate(446,179)"/>
<path d="M0 0 C0 0.66 0 1.32 0 2 C0.66 2 1.32 2 2 2 C1.67 2.66 1.34 3.32 1 4 C-0.61 3.66 -0.61 3.66 -2.25 3.31 C-5.93 2.64 -5.93 2.64 -8.44 4.44 C-8.95 4.95 -9.47 5.47 -10 6 C-9.3 9.18 -9.3 9.18 -6.57 10.5 C-5.58 11 -4.58 11.49 -3.56 12 C1.78 14.68 1.78 14.68 4 18 C3.87 21.66 3.77 24.08 1.38 26.94 C-2.8 28.81 -6.55 28.41 -10.88 27.19 C-13 26 -13 26 -14 23 C-9.38 23.66 -4.76 24.32 0 25 C1.24 22.96 1.24 22.96 0.75 20.25 C-1.67 15.76 -4.94 14.6 -9.47 12.49 C-12.19 10.89 -13.09 9.99 -14 7 C-13.67 6.34 -13.34 5.68 -13 5 C-12.34 5 -11.68 5 -11 5 C-10.67 4.01 -10.34 3.02 -10 2 C-9.34 2 -8.68 2 -8 2 C-8 1.34 -8 0.68 -8 0 C-4.71 -1.1 -3.29 -0.8 0 0 Z " fill="#E7A59B" transform="translate(720,406)"/>
<path d="M0 0 C0.77 8.02 0.77 8.02 -2.06 11.62 C-5.86 13.4 -8 13.06 -12 12 C-14 10 -14 10 -14.31 7.56 C-14 5 -14 5 -12.94 3.31 C-8.94 0.6 -4.75 0 0 0 Z " fill="#252837" transform="translate(716,364)"/>
<path d="M0 0 C0.77 8.04 0.77 8.04 -2.12 11.62 C-5.67 13.32 -7.28 13.13 -11 12 C-11.99 11.34 -12.98 10.68 -14 10 C-14.42 7.25 -14.43 5.69 -12.94 3.31 C-8.94 0.6 -4.75 0 0 0 Z " fill="#252837" transform="translate(679,309)"/>
<path d="M0 0 C6.75 1.62 6.75 1.62 9 5 C9.05 7.23 9.05 7.23 8.75 9.62 C8.62 10.82 8.62 10.82 8.48 12.04 C8.24 13.01 8.24 13.01 8 14 C5.24 15.38 3.05 15.19 0 15 C-2 13 -2 13 -2.2 10.4 C-2.17 9.4 -2.15 8.4 -2.12 7.38 C-2.11 6.37 -2.09 5.37 -2.07 4.34 C-2.05 3.57 -2.02 2.79 -2 2 C-1.34 2 -0.68 2 0 2 C0 1.34 0 0.68 0 0 Z " fill="#E7A59B" transform="translate(863,550)"/>
<path d="M0 0 C0 3.3 0 6.6 0 10 C-0.66 10 -1.32 10 -2 10 C-2 10.66 -2 11.32 -2 12 C-6.93 13.64 -9.54 12.19 -14 10 C-13.71 6.51 -13.24 5.24 -10.69 2.75 C-6.78 0.21 -4.67 0 0 0 Z " fill="#252837" transform="translate(532,364)"/>
<path d="M0 0 C0.66 0 1.32 0 2 0 C2 0.66 2 1.32 2 2 C2.9 2.15 2.9 2.15 3.81 2.31 C6.28 3.09 7.32 4.07 9 6 C4.25 4.12 4.25 4.12 2 3 C2.24 3.86 2.48 4.72 2.73 5.61 C5.59 16 7.84 26.44 10 37 C21.55 35.02 33.1 33.04 45 31 C44.34 30.67 43.68 30.34 43 30 C43 29.34 43 28.68 43 28 C41.68 27.34 40.36 26.68 39 26 C42.41 26 43.39 26.67 46.19 28.5 C47.26 29.2 47.26 29.2 48.36 29.91 C48.9 30.27 49.44 30.63 50 31 C46.36 33.43 42.95 33.89 38.72 34.58 C37.91 34.71 37.1 34.85 36.26 34.99 C34.55 35.27 32.84 35.55 31.13 35.82 C28.51 36.25 25.89 36.69 23.27 37.14 C21.61 37.41 19.94 37.68 18.28 37.95 C17.5 38.09 16.71 38.22 15.9 38.36 C10.34 39.23 10.34 39.23 7 37 C6.37 34.51 5.92 32.16 5.56 29.62 C5.32 28.1 5.08 26.57 4.83 25.04 C4.7 24.23 4.57 23.42 4.44 22.58 C3.67 18.01 2.74 13.48 1.81 8.94 C1.54 7.61 1.54 7.61 1.27 6.25 C0.85 4.17 0.42 2.08 0 0 Z " fill="#E7A59B" transform="translate(844,475)"/>
<path d="M0 0 C1.98 1.65 3.96 3.3 6 5 C5.55 9.35 2.69 11.73 -0.28 14.64 C-0.8 15.17 -1.33 15.69 -1.87 16.24 C-2.98 17.35 -4.1 18.45 -5.22 19.56 C-6.94 21.25 -8.64 22.96 -10.34 24.66 C-11.42 25.74 -12.51 26.82 -13.59 27.89 C-14.1 28.4 -14.61 28.92 -15.14 29.44 C-18.77 33 -18.77 33 -21 33 C-21.5 33.99 -21.5 33.99 -22 35 C-23.02 30.35 -22.75 26.68 -22 22 C-33.01 22.55 -44.01 23.16 -55 24 C-55 23.67 -55 23.34 -55 23 C-46.25 21.4 -37.89 20.74 -29 21 C-29 20.34 -29 19.68 -29 19 C-26.12 18.88 -26.12 18.88 -23 19 C-21 21 -21 21 -20 31 C-12.08 23.08 -4.16 15.16 4 7 C2.68 5.35 1.36 3.7 0 2 C0 1.34 0 0.68 0 0 Z " fill="#E7A59B" transform="translate(637,106)"/>
<path d="M0 0 C0 0.66 0 1.32 0 2 C0.99 2.33 1.98 2.66 3 3 C2.34 3.66 1.68 4.32 1 5 C0.01 4.34 -0.98 3.68 -2 3 C-5.98 3.07 -8.25 3.43 -11.44 5.88 C-13.78 10.55 -13.75 14.87 -13 20 C-11.77 22.81 -11.77 22.81 -9 24 C-4.72 24.95 -1.2 25.4 3 24 C3 24.66 3 25.32 3 26 C-0.67 28.35 -3.72 28.44 -8 28 C-12.34 25.75 -15.2 23.59 -17 19 C-17.63 14.85 -17.95 10.88 -16.02 7.05 C-14.18 4.71 -12.49 3.18 -9.69 2.12 C-9.13 2.08 -8.57 2.04 -8 2 C-8 1.34 -8 0.68 -8 0 C-4.71 -1.1 -3.29 -0.8 0 0 Z " fill="#E7A59B" transform="translate(651,406)"/>
<path d="M0 0 C2.09 3.21 3 5.16 3 9 C-2.28 9 -7.56 9 -13 9 C-11.99 3.96 -11.66 3.11 -8 0 C-4.97 -1.51 -3.19 -0.98 0 0 Z " fill="#252837" transform="translate(674,409)"/>
<path d="M0 0 C1.32 0.33 2.64 0.66 4 1 C4 3.67 4 6.33 4 9 C4.66 9 5.32 9 6 9 C6.66 8.34 7.32 7.68 8 7 C9.26 9.52 8.66 10.35 8 13 C8.33 13.66 8.66 14.32 9 15 C8.36 14.81 7.72 14.63 7.06 14.44 C6.04 14.22 6.04 14.22 5 14 C4.67 14.33 4.34 14.66 4 15 C2 15.04 -0 15.04 -2 15 C-2 14.34 -2 13.68 -2 13 C-2.66 13 -3.32 13 -4 13 C-4 12.01 -4 11.02 -4 10 C-3.34 10 -2.68 10 -2 10 C-2.04 8.91 -2.08 7.81 -2.12 6.69 C-2 3 -2 3 0 0 Z " fill="#BB8884" transform="translate(737,53)"/>
<path d="M0 0 C1.68 0.29 3.34 0.62 5 1 C5.04 3 5.04 5 5 7 C4 8 4 8 1.44 8.06 C0.63 8.04 -0.17 8.02 -1 8 C-1 8.99 -1 9.98 -1 11 C-0.22 10.81 0.57 10.63 1.38 10.44 C4 10 4 10 6 11 C6 12.65 6 14.3 6 16 C-0.75 17.12 -0.75 17.12 -3 16 C-3.37 5.33 -3.37 5.33 -1 1 C-0.67 0.67 -0.34 0.34 0 0 Z " fill="#977172" transform="translate(592,654)"/>
<path d="M0 0 C1.12 6.62 1.12 6.62 0 10 C-1.94 10.75 -1.94 10.75 -4 11 C-4.66 10.67 -5.32 10.34 -6 10 C-6 11.32 -6 12.64 -6 14 C-6.66 14 -7.32 14 -8 14 C-9.38 11.24 -9.1 8.95 -9.06 5.88 C-9.05 4.78 -9.04 3.68 -9.04 2.55 C-9.02 1.71 -9.01 0.87 -9 0 C-3.38 -1.12 -3.38 -1.12 0 0 Z " fill="#E7A59B" transform="translate(992,285)"/>
<path d="M0 0 C2.48 0.99 2.48 0.99 5 2 C4.83 2.6 4.67 3.2 4.5 3.81 C3.89 6.11 3.89 6.11 4 9 C4.99 9.33 5.98 9.66 7 10 C7.33 9.01 7.66 8.02 8 7 C8.33 7.66 8.66 8.32 9 9 C8.06 11.12 8.06 11.12 7 13 C7.66 13.33 8.32 13.66 9 14 C8.01 14 7.02 14 6 14 C3.66 14.32 1.33 14.65 -1 15 C-1.99 13.35 -2.98 11.7 -4 10 C-3.34 10 -2.68 10 -2 10 C-2.04 8.91 -2.08 7.81 -2.12 6.69 C-2 3 -2 3 0 0 Z " fill="#B58481" transform="translate(299,179)"/>
<path d="M0 0 C0.66 0 1.32 0 2 0 C3.18 3.67 3.07 7.17 3 11 C3.66 11 4.32 11 5 11 C5 11.66 5 12.32 5 13 C4.34 13 3.68 13 3 13 C3 14.32 3 15.64 3 17 C2.34 17 1.68 17 1 17 C0.67 15.68 0.34 14.36 0 13 C-0.97 12.88 -1.94 12.75 -2.94 12.62 C-3.95 12.42 -4.96 12.21 -6 12 C-6.33 11.34 -6.66 10.68 -7 10 C-6.67 9.34 -6.34 8.68 -6 8 C-5.34 8 -4.68 8 -4 8 C-3.71 7.05 -3.42 6.1 -3.12 5.12 C-2 2 -2 2 0 0 Z " fill="#CE958E" transform="translate(578,595)"/>
<path d="M0 0 C3.62 0.38 3.62 0.38 7 1 C7 1.66 7 2.32 7 3 C5.02 3 3.04 3 1 3 C1 4.32 1 5.64 1 7 C1.76 6.9 2.53 6.79 3.31 6.69 C6 7 6 7 7.88 9.19 C9.16 12.41 9.22 13.78 8 17 C4.15 19.57 2.41 18.83 -2 18 C-2 17.34 -2 16.68 -2 16 C0.64 16 3.28 16 6 16 C6.05 13.58 6.05 13.58 5 11 C1.53 9.13 1.53 9.13 -2 8 C-2.12 5.12 -2.12 5.12 -2 2 C-1.34 1.34 -0.68 0.68 0 0 Z " fill="#E7A59B" transform="translate(395,416)"/>
<path d="M0 0 C1.32 0.33 2.64 0.66 4 1 C3.13 1.62 3.13 1.62 2.25 2.25 C1.51 2.83 0.76 3.4 0 4 C-1.04 4.74 -1.04 4.74 -2.09 5.5 C-5 9.31 -4.67 13.07 -4.75 17.75 C-4.78 18.64 -4.81 19.53 -4.84 20.44 C-4.91 22.63 -4.96 24.81 -5 27 C-5.66 27 -6.32 27 -7 27 C-8.28 24.44 -8.11 22.63 -8.1 19.77 C-8.09 18.74 -8.09 17.71 -8.09 16.65 C-8.08 15.57 -8.07 14.49 -8.06 13.38 C-8.06 12.29 -8.05 11.2 -8.05 10.08 C-8.04 7.39 -8.02 4.69 -8 2 C-7.01 2 -6.02 2 -5 2 C-4.67 2.66 -4.34 3.32 -4 4 C-2.68 3.34 -1.36 2.68 0 2 C0 1.34 0 0.68 0 0 Z " fill="#E7A59B" transform="translate(647,351)"/>
<path d="M0 0 C0.33 0 0.66 0 1 0 C1.05 2.29 1.09 4.58 1.12 6.88 C1.15 8.15 1.17 9.43 1.2 10.74 C1 14 1 14 -1 16 C-3.44 16.38 -3.44 16.38 -6 16 C-7.81 14.19 -7.81 14.19 -9 12 C-9 11.01 -9 10.02 -9 9 C-8.34 9 -7.68 9 -7 9 C-6.67 8.01 -6.34 7.02 -6 6 C-5.34 6 -4.68 6 -4 6 C-3.67 5.34 -3.34 4.68 -3 4 C-2.34 4.33 -1.68 4.66 -1 5 C-0.67 3.35 -0.34 1.7 0 0 Z " fill="#E7A59B" transform="translate(793,52)"/>
<path d="M0 0 C1.32 0.33 2.64 0.66 4 1 C1 3 1 3 -1.64 4.48 C-5.25 8.33 -4.78 12.15 -4.81 17.25 C-4.84 18.19 -4.86 19.12 -4.89 20.09 C-4.95 22.39 -4.98 24.69 -5 27 C-5.66 27 -6.32 27 -7 27 C-8.28 24.44 -8.11 22.63 -8.1 19.77 C-8.09 18.74 -8.09 17.71 -8.09 16.65 C-8.08 15.57 -8.07 14.49 -8.06 13.38 C-8.06 12.29 -8.05 11.2 -8.05 10.08 C-8.04 7.39 -8.02 4.69 -8 2 C-7.01 2 -6.02 2 -5 2 C-4.67 2.66 -4.34 3.32 -4 4 C-2.68 3.34 -1.36 2.68 0 2 C0 1.34 0 0.68 0 0 Z " fill="#E7A59B" transform="translate(598,406)"/>
<path d="M0 0 C0.33 0 0.66 0 1 0 C1 4.95 1 9.9 1 15 C-1.31 15.33 -3.62 15.66 -6 16 C-6.99 14.35 -7.98 12.7 -9 11 C-7.68 9.02 -6.36 7.04 -5 5 C-3.35 5.33 -1.7 5.66 0 6 C0 4.02 0 2.04 0 0 Z " fill="#E7A59B" transform="translate(259,178)"/>
<path d="M0 0 C4.73 2.31 4.73 2.31 5.94 5.44 C6.01 8.26 5.49 9.64 4 12 C1.19 12.25 1.19 12.25 -2 12 C-3.88 10.19 -3.88 10.19 -5 8 C-5 7.01 -5 6.02 -5 5 C-4.34 5 -3.68 5 -3 5 C-2.67 4.01 -2.34 3.02 -2 2 C-1.34 2 -0.68 2 0 2 C0 1.34 0 0.68 0 0 Z " fill="#E7A59B" transform="translate(349,182)"/>
<path d="M0 0 C0.66 0 1.32 0 2 0 C2 0.66 2 1.32 2 2 C2.99 2.33 3.98 2.66 5 3 C5.88 4.75 5.88 4.75 6 7 C4.88 9.75 4.88 9.75 3 12 C0.31 12.31 0.31 12.31 -2 12 C-2.33 11.01 -2.66 10.02 -3 9 C-3.66 9 -4.32 9 -5 9 C-4.42 6.61 -3.78 4.33 -3 2 C-2.01 2 -1.02 2 0 2 C0 1.34 0 0.68 0 0 Z " fill="#E7A59B" transform="translate(231,424)"/>
<path d="M0 0 C2 0.94 2 0.94 3.31 3.81 C4 6.94 4 6.94 3 9.94 C0.69 10.27 -1.62 10.6 -4 10.94 C-7 7.31 -7 7.31 -7 3.94 C-6.34 3.94 -5.68 3.94 -5 3.94 C-4.67 2.95 -4.34 1.96 -4 0.94 C-2 -0.06 -2 -0.06 0 0 Z " fill="#E7A59B" transform="translate(1007,284.0625)"/>
<path d="M0 0 C2.48 0.99 2.48 0.99 5 2 C6.25 8.62 6.25 8.62 4 12 C1.56 12.5 1.56 12.5 -1 12 C-2.94 9.81 -2.94 9.81 -4 7 C-3.19 4.19 -3.19 4.19 -2 2 C-1.34 2 -0.68 2 0 2 C0 1.34 0 0.68 0 0 Z " fill="#E7A59B" transform="translate(766,56)"/>
<path d="M0 0 C2.88 -0.19 2.88 -0.19 6 0 C8 3 8 3 7.69 6.12 C7 9 7 9 6 10 C3.66 9.71 1.33 9.38 -1 9 C-1 8.01 -1 7.02 -1 6 C-1.66 6 -2.32 6 -3 6 C-3 5.34 -3 4.68 -3 4 C-2.34 4 -1.68 4 -1 4 C-0.67 2.68 -0.34 1.36 0 0 Z " fill="#E7A59B" transform="translate(966,555)"/>
<path d="M0 0 C1.94 1.44 1.94 1.44 2.62 4 C2.73 5.13 2.83 6.27 2.94 7.44 C3.07 8.19 3.21 8.95 3.35 9.73 C3.73 12.01 4 14.12 3.94 16.44 C2.38 18.56 2.38 18.56 -0.06 19.44 C-3.31 19.12 -3.31 19.12 -6.06 18.44 C-6.39 17.45 -6.72 16.46 -7.06 15.44 C-4.42 15.77 -1.78 16.1 0.94 16.44 C0.61 14.46 0.28 12.48 -0.06 10.44 C-1.05 10.44 -2.04 10.44 -3.06 10.44 C-3.06 9.45 -3.06 8.46 -3.06 7.44 C-2.07 7.11 -1.08 6.78 -0.06 6.44 C-0.39 5.45 -0.72 4.46 -1.06 3.44 C-2.71 3.44 -4.36 3.44 -6.06 3.44 C-5.4 3.11 -4.74 2.78 -4.06 2.44 C-4.06 1.78 -4.06 1.12 -4.06 0.44 C-2.06 -0.56 -2.06 -0.56 0 0 Z " fill="#E7A59B" transform="translate(819.0625,543.5625)"/>
<path d="M0 0 C2.38 -0.12 2.38 -0.12 5 0 C7 2 7 2 7.12 5.62 C7.08 6.74 7.04 7.85 7 9 C5.35 9.66 3.7 10.32 2 11 C-0.5 8.69 -0.5 8.69 -3 6 C-3 5.01 -3 4.02 -3 3 C-2.34 3 -1.68 3 -1 3 C-0.67 2.01 -0.34 1.02 0 0 Z " fill="#E7A59B" transform="translate(1028,555)"/>
<path d="M0 0 C2.38 0.31 2.38 0.31 5 1 C7 4 7 4 6.81 6.81 C5.95 10.19 4.67 12.95 3 16 C4.32 16.33 5.64 16.66 7 17 C7 17.66 7 18.32 7 19 C4.03 18.67 1.06 18.34 -2 18 C-2 15 -2 15 0.44 12.44 C1.28 11.63 2.13 10.83 3 10 C4.25 7.51 3.78 6.59 3 4 C1.35 4 -0.3 4 -2 4 C-2 3.34 -2 2.68 -2 2 C-1.34 2 -0.68 2 0 2 C0 1.34 0 0.68 0 0 Z " fill="#E2A198" transform="translate(871,281)"/>
<path d="M0 0 C0.99 0 1.98 0 3 0 C4.19 5.4 3.92 10.41 3.56 15.88 C3.51 16.75 3.46 17.63 3.4 18.54 C3.28 20.69 3.14 22.85 3 25 C2.34 25 1.68 25 1 25 C-0.28 22.44 -0.11 20.63 -0.1 17.77 C-0.09 16.74 -0.09 15.71 -0.09 14.65 C-0.08 13.57 -0.07 12.49 -0.06 11.38 C-0.06 10.29 -0.05 9.2 -0.05 8.08 C-0.04 5.39 -0.02 2.69 0 0 Z " fill="#E7A59B" transform="translate(501,353)"/>
<path d="M0 0 C0.66 0 1.32 0 2 0 C2 8.58 2 17.16 2 26 C1.34 26 0.68 26 0 26 C-1.27 23.46 -1.13 21.65 -1.13 18.81 C-1.13 17.78 -1.14 16.76 -1.14 15.7 C-1.13 14.62 -1.13 13.55 -1.12 12.44 C-1.13 11.36 -1.13 10.28 -1.14 9.17 C-1.14 8.14 -1.13 7.12 -1.13 6.06 C-1.13 5.11 -1.13 4.17 -1.13 3.19 C-1 1 -1 1 0 0 Z " fill="#E7A59B" transform="translate(745,352)"/>
<path d="M0 0 C0.5 0.99 0.5 0.99 1 2 C-9.98 5.07 -20.97 8.09 -32 11 C-28.54 12.98 -28.54 12.98 -25 15 C-25 15.66 -25 16.32 -25 17 C-29.46 15.43 -34.8 13.41 -37 9 C-36.43 8.89 -35.86 8.78 -35.27 8.67 C-28.13 7.28 -21.07 5.64 -14 3.94 C-12.87 3.67 -11.74 3.4 -10.57 3.12 C-9.5 2.86 -8.42 2.61 -7.31 2.34 C-6.34 2.11 -5.37 1.87 -4.36 1.63 C-2 1.09 -2 1.09 0 0 Z " fill="#E7A59B" transform="translate(420,229)"/>
<path d="M0 0 C2.73 0.03 5.3 0.56 8 1 C6 3 6 3 3.38 3.12 C2.59 3.08 1.81 3.04 1 3 C1 3.99 1 4.98 1 6 C3.97 6.5 3.97 6.5 7 7 C6.34 7.66 5.68 8.32 5 9 C3.68 9 2.36 9 1 9 C1 10.65 1 12.3 1 14 C2.98 14 4.96 14 7 14 C7 14.33 7 14.66 7 15 C3.62 15.12 3.62 15.12 0 15 C-2 13 -2 13 -2.27 10.47 C-2.26 9.49 -2.26 8.51 -2.25 7.5 C-2.26 6.52 -2.26 5.54 -2.27 4.53 C-2 2 -2 2 0 0 Z " fill="#E7A59B" transform="translate(964,280)"/>
<path d="M0 0 C1.32 0 2.64 0 4 0 C4.04 0.99 4.07 1.97 4.11 2.99 C4.18 4.27 4.24 5.55 4.31 6.88 C4.37 8.15 4.43 9.43 4.49 10.74 C4.66 11.82 4.83 12.89 5 14 C5.99 14.66 6.98 15.32 8 16 C8 16.66 8 17.32 8 18 C5.03 18 2.06 18 -1 18 C-1 17.01 -1 16.02 -1 15 C-0.34 15 0.32 15 1 15 C0.93 14.17 0.86 13.34 0.78 12.48 C0.69 11.39 0.6 10.31 0.5 9.19 C0.41 8.11 0.31 7.03 0.22 5.92 C0 3 0 3 0 0 Z " fill="#E7A59B" transform="translate(683,101)"/>
<path d="M0 0 C5 1 5 1 7 3 C6.81 6.5 6.81 6.5 6 10 C3 12 3 12 0 12 C0 8.04 0 4.08 0 0 Z " fill="#252837" transform="translate(490,653)"/>
<path d="M0 0 C0.99 0 1.98 0 3 0 C3 1.65 3 3.3 3 5 C4.32 4.34 5.64 3.68 7 3 C7 3.66 7 4.32 7 5 C7.66 5 8.32 5 9 5 C9.33 7.97 9.66 10.94 10 14 C9.34 14 8.68 14 8 14 C7.73 12.87 7.46 11.73 7.19 10.56 C6.6 8.8 6.6 8.8 6 7 C5.01 6.67 4.02 6.34 3 6 C3 8.64 3 11.28 3 14 C2.34 14 1.68 14 1 14 C-0.38 11.24 -0.1 8.95 -0.06 5.88 C-0.05 4.78 -0.04 3.68 -0.04 2.55 C-0.02 1.71 -0.01 0.87 0 0 Z " fill="#E7A59B" transform="translate(228,179)"/>
<path d="M0 0 C2.47 0.5 2.47 0.5 5 1 C5 1.66 5 2.32 5 3 C5.66 3 6.32 3 7 3 C6.69 6.38 6.69 6.38 6 10 C3 12 3 12 0 12 C0 8.04 0 4.08 0 0 Z " fill="#252837" transform="translate(216,423)"/>
<path d="M0 0 C5 1 5 1 6.38 2.75 C7.16 5.58 6.95 7.23 6 10 C3 12 3 12 0 12 C0 8.04 0 4.08 0 0 Z " fill="#252837" transform="translate(169,423)"/>
<path d="M0 0 C2 1 2 1 3.16 4.29 C3.59 5.76 4.01 7.22 4.42 8.68 C4.75 9.84 4.75 9.84 5.09 11.02 C5.56 12.65 6.02 14.28 6.48 15.92 C7.18 18.43 7.91 20.93 8.63 23.43 C9.08 25.02 9.53 26.6 9.98 28.18 C10.31 29.31 10.31 29.31 10.64 30.46 C12.12 35.77 12.12 35.77 11 38 C7.54 36.02 7.54 36.02 4 34 C5.32 33.34 6.64 32.68 8 32 C5.85 21.41 2.46 11.22 -1 1 C-0.67 0.67 -0.34 0.34 0 0 Z " fill="#D39891" transform="translate(422,230)"/>
<path d="M0 0 C1.89 0.23 1.89 0.23 4 1 C5.01 2.93 5.01 2.93 5.69 5.31 C5.92 6.09 6.15 6.87 6.39 7.68 C6.94 9.78 7.48 11.89 8 14 C7.34 14 6.68 14 6 14 C5.67 12.68 5.34 11.36 5 10 C3.02 10 1.04 10 -1 10 C-1.66 11.32 -2.32 12.64 -3 14 C-2.59 9.03 -2.2 4.55 0 0 Z " fill="#CD948D" transform="translate(317,180)"/>
<path d="M0 0 C5 2 5 2 7 4 C6.55 9.45 6.55 9.45 4 12 C2.68 12 1.36 12 0 12 C0 8.04 0 4.08 0 0 Z " fill="#252837" transform="translate(864,552)"/>
<path d="M0 0 C3.88 0.88 3.88 0.88 5 2 C5.07 3.52 5.08 5.04 5.06 6.56 C5.05 7.39 5.04 8.22 5.04 9.07 C5.02 9.7 5.01 10.34 5 11 C2.69 11.33 0.38 11.66 -2 12 C-2 11.34 -2 10.68 -2 10 C-2.66 9.67 -3.32 9.34 -4 9 C-2.69 7.5 -2.69 7.5 -1 6 C-0.01 6 0.98 6 2 6 C2 5.01 2 4.02 2 3 C1.01 3 0.02 3 -1 3 C-0.67 2.01 -0.34 1.02 0 0 Z " fill="#B2827F" transform="translate(183,424)"/>
<path d="M0 0 C1.94 1 1.94 1 3.19 3.56 C3.44 4.37 3.68 5.17 3.94 6 C2.94 7 2.94 7 -0.12 7.06 C-1.09 7.04 -2.06 7.02 -3.06 7 C-1.06 10.01 -0.22 10.63 2.94 12 C0.12 12.25 0.12 12.25 -3.06 12 C-5 10.31 -5 10.31 -6.06 8 C-5.92 5.1 -5.41 3.5 -3.75 1.12 C-2.06 0 -2.06 0 0 0 Z " fill="#BD8A85" transform="translate(284.0625,424)"/>
<path d="M0 0 C0.76 0.21 1.53 0.41 2.31 0.62 C2.64 2.28 2.97 3.93 3.31 5.62 C1 5.62 -1.31 5.62 -3.69 5.62 C-1.68 8.64 -0.85 9.26 2.31 10.62 C-0.5 10.88 -0.5 10.88 -3.69 10.62 C-5.62 8.94 -5.62 8.94 -6.69 6.62 C-6.56 4 -6.56 4 -5.69 1.62 C-2.69 -0.38 -2.69 -0.38 0 0 Z " fill="#B1827F" transform="translate(398.6875,183.375)"/>
<path d="M0 0 C1.88 0.12 1.88 0.12 4 1 C5.41 4.01 6.15 6.06 5.62 9.38 C5.42 9.91 5.21 10.45 5 11 C2.69 11.33 0.38 11.66 -2 12 C-2.33 10.35 -2.66 8.7 -3 7 C-1.35 6.01 0.3 5.02 2 4 C0.68 3.34 -0.64 2.68 -2 2 C-1.34 2 -0.68 2 0 2 C0 1.34 0 0.68 0 0 Z " fill="#C08C87" transform="translate(378,182)"/>
<path d="M0 0 C2.44 0.88 2.44 0.88 3.75 2.94 C4.09 3.9 4.09 3.9 4.44 4.88 C3.44 5.88 3.44 5.88 -0.12 5.94 C-1.26 5.92 -2.39 5.9 -3.56 5.88 C-2.57 7.36 -2.57 7.36 -1.56 8.88 C1.02 9.13 1.02 9.13 3.44 8.88 C3.11 9.53 2.78 10.19 2.44 10.88 C0.13 10.54 -2.18 10.22 -4.56 9.88 C-4.89 7.24 -5.22 4.59 -5.56 1.88 C-2.56 -0.12 -2.56 -0.12 0 0 Z " fill="#AF817E" transform="translate(245.5625,183.125)"/>
<path d="M0 0 C0.78 3.41 1.1 6.51 1 10 C-1.64 10 -4.28 10 -7 10 C-7.33 8.68 -7.66 7.36 -8 6 C-6.35 5.01 -4.7 4.02 -3 3 C-3.99 2.67 -4.98 2.34 -6 2 C-6 1.34 -6 0.68 -6 0 C-3 -1 -3 -1 0 0 Z " fill="#BE8A86" transform="translate(882,555)"/>
<path d="M0 0 C0.33 2.64 0.66 5.28 1 8 C-1.31 9.56 -1.31 9.56 -4 11 C-4.99 10.67 -5.98 10.34 -7 10 C-7.69 7.94 -7.69 7.94 -8 6 C-6.35 5.01 -4.7 4.02 -3 3 C-3.99 2.67 -4.98 2.34 -6 2 C-6 1.34 -6 0.68 -6 0 C-3 -1 -3 -1 0 0 Z " fill="#BE8A86" transform="translate(900,555)"/>
<path d="M0 0 C1.88 0.19 1.88 0.19 4 1 C5.25 3.56 5.25 3.56 6 6 C5 7 5 7 1.94 7.06 C0.97 7.04 -0 7.02 -1 7 C-1 7.99 -1 8.98 -1 10 C1.97 10.5 1.97 10.5 5 11 C5 11.33 5 11.66 5 12 C2.19 12.31 2.19 12.31 -1 12 C-3 9.81 -3 9.81 -4 7 C-3.19 4.19 -3.19 4.19 -2 2 C-1.34 2 -0.68 2 0 2 C0 1.34 0 0.68 0 0 Z " fill="#BB8884" transform="translate(284,182)"/>
<path d="M0 0 C0.66 0 1.32 0 2 0 C2 0.66 2 1.32 2 2 C2.66 2 3.32 2 4 2 C4.84 5.38 5.11 7.67 4 11 C1.69 11.33 -0.62 11.66 -3 12 C-3 10.35 -3 8.7 -3 7 C-1.35 6.34 0.3 5.68 2 5 C2 4.34 2 3.68 2 3 C0.35 3 -1.3 3 -3 3 C-2.01 2.67 -1.02 2.34 0 2 C0 1.34 0 0.68 0 0 Z " fill="#BE8A86" transform="translate(705,56)"/>
<path d="M0 0 C0.66 0 1.32 0 2 0 C2 0.66 2 1.32 2 2 C2.66 2 3.32 2 4 2 C4.84 5.38 5.11 7.67 4 11 C2.02 11.33 0.04 11.66 -2 12 C-2.33 10.35 -2.66 8.7 -3 7 C-1.35 6.34 0.3 5.68 2 5 C2 4.34 2 3.68 2 3 C0.35 3 -1.3 3 -3 3 C-2.01 2.67 -1.02 2.34 0 2 C0 1.34 0 0.68 0 0 Z " fill="#B78682" transform="translate(522,654)"/>
<path d="M0 0 C3.88 0.88 3.88 0.88 5 2 C5.07 3.52 5.08 5.04 5.06 6.56 C5.05 7.39 5.04 8.22 5.04 9.07 C5.02 9.7 5.01 10.34 5 11 C2.69 11.33 0.38 11.66 -2 12 C-2.33 10.35 -2.66 8.7 -3 7 C-1.02 6.34 0.96 5.68 3 5 C1.68 4.34 0.36 3.68 -1 3 C-0.67 2.01 -0.34 1.02 0 0 Z " fill="#B48480" transform="translate(777,56)"/>
<path d="M0 0 C0.7 3.15 1 5.73 1 9 C-1.31 9.33 -3.62 9.66 -6 10 C-6.66 9.01 -7.32 8.02 -8 7 C-7.36 6.73 -6.72 6.46 -6.06 6.19 C-3.67 5.11 -3.67 5.11 -3 2 C-3.99 2 -4.98 2 -6 2 C-6 1.34 -6 0.68 -6 0 C-3 -1 -3 -1 0 0 Z " fill="#B68582" transform="translate(933,555)"/>
<path d="M0 0 C0.76 0.21 1.53 0.41 2.31 0.62 C2.64 2.27 2.97 3.92 3.31 5.62 C1 5.62 -1.31 5.62 -3.69 5.62 C-2.7 7.11 -2.7 7.11 -1.69 8.62 C0.9 8.88 0.9 8.88 3.31 8.62 C2.98 9.28 2.65 9.95 2.31 10.62 C0 10.94 0 10.94 -2.69 10.62 C-5.32 7.35 -5.69 5.9 -5.69 1.62 C-2.69 -0.38 -2.69 -0.38 0 0 Z " fill="#AB7E7C" transform="translate(549.6875,655.375)"/>
<path d="M0 0 C2.56 0.88 2.56 0.88 4.44 3 C5.89 6.71 5.5 9.04 4.56 12.88 C3.9 13.54 3.24 14.19 2.56 14.88 C0.25 14.88 -2.06 14.88 -4.44 14.88 C-4.44 10.25 -4.44 5.63 -4.44 0.88 C-2.44 -0.12 -2.44 -0.12 0 0 Z M-3.44 1.88 C-3.44 5.83 -3.44 9.8 -3.44 13.88 C-1.46 13.55 0.52 13.21 2.56 12.88 C3.4 9.95 3.62 8.11 2.94 5.12 C2.48 4.38 2.03 3.64 1.56 2.88 C-0.09 2.55 -1.74 2.21 -3.44 1.88 Z " fill="#E7A59B" transform="translate(921.4375,280.125)"/>
<path d="M0 0 C7.75 -0.12 7.75 -0.12 10 1 C10 1.66 10 2.32 10 3 C9.01 3 8.02 3 7 3 C7.02 3.77 7.05 4.54 7.07 5.34 C7.1 6.84 7.1 6.84 7.12 8.38 C7.15 9.37 7.17 10.37 7.2 11.4 C7 14 7 14 5 16 C4.13 13.01 3.89 10.36 3.94 7.25 C3.95 6.45 3.96 5.65 3.96 4.83 C3.98 4.22 3.99 3.62 4 3 C2.68 2.34 1.36 1.68 0 1 C0 0.67 0 0.34 0 0 Z " fill="#E7A59B" transform="translate(907,550)"/>
<path d="M0 0 C0.33 0.66 0.66 1.32 1 2 C1.66 2 2.32 2 3 2 C4.48 4.96 4.06 7.74 4 11 C3.34 11 2.68 11 2 11 C0.65 8.29 0.93 5.99 1 3 C-0.32 3 -1.64 3 -3 3 C-3 5.64 -3 8.28 -3 11 C-3.66 11 -4.32 11 -5 11 C-6.48 8.04 -6.06 5.26 -6 2 C-4.02 1.34 -2.04 0.68 0 0 Z " fill="#E7A59B" transform="translate(350,424)"/>
<path d="M0 0 C-0.33 0.66 -0.66 1.32 -1 2 C-3.06 2.62 -3.06 2.62 -5 3 C-3.02 4.65 -1.04 6.3 1 8 C0.12 12.88 0.12 12.88 -1 14 C-3 14.04 -5 14.04 -7 14 C-7.33 13.34 -7.66 12.68 -8 12 C-6.02 12 -4.04 12 -2 12 C-1.67 11.34 -1.34 10.68 -1 10 C-1.66 9.67 -2.32 9.34 -3 9 C-3 8.34 -3 7.68 -3 7 C-3.8 6.73 -4.61 6.46 -5.44 6.19 C-6.28 5.8 -7.13 5.4 -8 5 C-8.33 4.01 -8.66 3.02 -9 2 C-8 0 -8 0 -6.19 -0.69 C-3.81 -1.03 -2.27 -0.73 0 0 Z " fill="#E7A59B" transform="translate(215,180)"/>
<path d="M0 0 C1.48 2.96 1.06 5.74 1 9 C0.34 9 -0.32 9 -1 9 C-1.66 6.69 -2.32 4.38 -3 2 C-3.99 2 -4.98 2 -6 2 C-6 4.31 -6 6.62 -6 9 C-6.66 9 -7.32 9 -8 9 C-9.35 6.29 -9.07 3.99 -9 1 C-5.64 -0.59 -3.53 -1.51 0 0 Z " fill="#E7A59B" transform="translate(1064,285)"/>
<path d="M0 0 C0.2 2.05 0.39 4.1 0.59 6.15 C0.72 6.76 0.86 7.37 1 8 C1.66 8.33 2.32 8.66 3 9 C3.33 6.03 3.66 3.06 4 0 C4.99 0 5.98 0 7 0 C7.29 6.05 7.29 6.05 7 8 C4 10 4 10 1.44 9.88 C-1 9 -1 9 -2.31 7.19 C-3 5 -3 5 -3 1 C-1 0 -1 0 0 0 Z " fill="#E3A299" transform="translate(251,426)"/>
<path d="M0 0 C0.58 0.37 1.15 0.74 1.75 1.12 C4 2.29 4 2.29 6.25 1.12 C7.12 0.57 7.12 0.57 8 0 C8 0.66 8 1.32 8 2 C8.66 2 9.32 2 10 2 C10 4.97 10 7.94 10 11 C9.67 11 9.34 11 9 11 C8.67 8.69 8.34 6.38 8 4 C7.01 4 6.02 4 5 4 C4.67 6.31 4.34 8.62 4 11 C3.34 11 2.68 11 2 11 C0.65 8.29 0.93 5.99 1 3 C0.01 2.67 -0.98 2.34 -2 2 C-1.34 1.34 -0.68 0.68 0 0 Z " fill="#E7A59B" transform="translate(362,182)"/>
<path d="M0 0 C-0.99 0.33 -1.98 0.66 -3 1 C-3 4.96 -3 8.92 -3 13 C-3.66 13 -4.32 13 -5 13 C-6.43 10.13 -6.38 7.27 -6.62 4.09 C-6.83 1.79 -6.83 1.79 -9 0 C-5.93 -1.53 -3.3 -0.55 0 0 Z " fill="#E7A59B" transform="translate(543,652)"/>
<path d="M0 0 C0.66 0 1.32 0 2 0 C2.08 4.16 1.98 7.95 1 12 C1.64 11.92 2.28 11.83 2.93 11.75 C3.76 11.64 4.59 11.54 5.44 11.44 C6.26 11.33 7.08 11.23 7.93 11.12 C8.62 11.08 9.3 11.04 10 11 C10.33 11.33 10.66 11.66 11 12 C13.69 12.24 16.36 12.42 19.06 12.56 C20.2 12.63 20.2 12.63 21.36 12.69 C23.24 12.8 25.12 12.9 27 13 C27 13.33 27 13.66 27 14 C8 14.18 8 14.18 0 13 C0 8.71 0 4.42 0 0 Z " fill="#E7A59B" transform="translate(654,592)"/>
<path d="M0 0 C1.48 0.99 1.48 0.99 3 2 C3 2.66 3 3.32 3 4 C3.66 4.33 4.32 4.66 5 5 C4.34 5 3.68 5 3 5 C3 7.64 3 10.28 3 13 C3.99 13.33 4.98 13.66 6 14 C5.01 14.33 4.02 14.66 3 15 C0 13 0 13 -0.55 10.72 C-0.61 9.84 -0.68 8.97 -0.75 8.06 C-0.83 7.19 -0.9 6.31 -0.98 5.41 C-1 3 -1 3 0 0 Z " fill="#E7A59B" transform="translate(1031,281)"/>
<path d="M0 0 C0.78 3.41 1.1 6.51 1 10 C0.01 9.34 -0.98 8.68 -2 8 C-2 7.01 -2 6.02 -2 5 C-4.33 5.96 -4.33 5.96 -6 9 C-6.66 8.01 -7.32 7.02 -8 6 C-7.34 6 -6.68 6 -6 6 C-6 5.34 -6 4.68 -6 4 C-4.68 3.67 -3.36 3.34 -2 3 C-2 2.34 -2 1.68 -2 1 C-3.32 0.67 -4.64 0.34 -6 0 C-3.51 -1.25 -2.59 -0.78 0 0 Z " fill="#E7A59B" transform="translate(508,656)"/>
<path d="M0 0 C0.66 0.33 1.32 0.66 2 1 C2 1.66 2 2.32 2 3 C2.66 3 3.32 3 4 3 C4 3.66 4 4.32 4 5 C3.34 5 2.68 5 2 5 C2.33 10.02 2.33 10.02 5 14 C3.68 14 2.36 14 1 14 C1 13.34 1 12.68 1 12 C0.34 12 -0.32 12 -1 12 C-1.03 10.19 -1.05 8.38 -1.06 6.56 C-1.07 5.55 -1.09 4.54 -1.1 3.5 C-1 1 -1 1 0 0 Z " fill="#E7A59B" transform="translate(387,180)"/>
<path d="M0 0 C0.33 0 0.66 0 1 0 C1.05 0.64 1.1 1.28 1.15 1.93 C1.22 2.76 1.3 3.59 1.38 4.44 C1.44 5.26 1.51 6.08 1.59 6.93 C1.72 7.62 1.86 8.3 2 9 C2.66 9.33 3.32 9.66 4 10 C4.33 7.03 4.66 4.06 5 1 C5.99 1 6.98 1 8 1 C8.29 7.05 8.29 7.05 8 9 C5 11 5 11 2.31 10.62 C1.55 10.42 0.79 10.21 0 10 C0 6.7 0 3.4 0 0 Z " fill="#E2A298" transform="translate(327,183)"/>
<path d="M0 0 C0.99 0.33 1.98 0.66 3 1 C3 3.31 3 5.62 3 8 C1.12 8.62 1.12 8.62 -1 9 C-3 7 -3 7 -3.31 4.5 C-3.21 3.68 -3.11 2.85 -3 2 C-2.01 1.34 -1.02 0.68 0 0 Z " fill="#252837" transform="translate(256,184)"/>
<path d="M0 0 C0.66 0.33 1.32 0.66 2 1 C2 1.66 2 2.32 2 3 C2.66 3 3.32 3 4 3 C4 3.66 4 4.32 4 5 C3.34 5 2.68 5 2 5 C2.33 10.02 2.33 10.02 5 14 C3.68 14 2.36 14 1 14 C-0.75 10.97 -1.25 8.8 -1.19 5.31 C-1.18 4.52 -1.17 3.74 -1.17 2.93 C-1 1 -1 1 0 0 Z " fill="#E7A59B" transform="translate(565,652)"/>
<path d="M0 0 C1.94 0.75 1.94 0.75 3.94 2.75 C3.56 6.38 3.56 6.38 2.94 9.75 C2.28 9.75 1.62 9.75 0.94 9.75 C0.28 7.44 -0.38 5.13 -1.06 2.75 C-2.05 2.75 -3.04 2.75 -4.06 2.75 C-4.06 5.06 -4.06 7.37 -4.06 9.75 C-4.39 9.75 -4.72 9.75 -5.06 9.75 C-5.36 3.7 -5.36 3.7 -5.06 1.75 C-2.06 -0.25 -2.06 -0.25 0 0 Z " fill="#E7A59B" transform="translate(990.0625,554.25)"/>
<path d="M0 0 C1.21 0.03 1.21 0.03 2.44 0.06 C2.44 2.37 2.44 4.68 2.44 7.06 C0.56 7.69 0.56 7.69 -1.56 8.06 C-3.56 6.06 -3.56 6.06 -3.75 3.5 C-3.49 0.15 -3.38 0.08 0 0 Z " fill="#252837" transform="translate(790.5625,58.9375)"/>
<path d="M0 0 C0.66 0 1.32 0 2 0 C2 0.99 2 1.98 2 3 C2.66 3 3.32 3 4 3 C4 3.66 4 4.32 4 5 C3.34 5 2.68 5 2 5 C2.33 10.02 2.33 10.02 5 14 C3.68 14 2.36 14 1 14 C1 13.01 1 12.02 1 11 C0.34 11 -0.32 11 -1 11 C-1.03 9.54 -1.05 8.08 -1.06 6.62 C-1.07 5.81 -1.09 5 -1.1 4.16 C-1 2 -1 2 0 0 Z " fill="#E7A59B" transform="translate(723,54)"/>
<path d="M0 0 C0.99 0 1.98 0 3 0 C3.33 4.62 3.66 9.24 4 14 C3.01 14.5 3.01 14.5 2 15 C-0.35 11.47 -0.21 9.97 -0.12 5.81 C-0.11 4.73 -0.09 3.64 -0.07 2.52 C-0.05 1.69 -0.02 0.86 0 0 Z " fill="#E7A59B" transform="translate(995,281)"/>
<path d="M0 0 C0.99 0 1.98 0 3 0 C3 3.96 3 7.92 3 12 C4.65 12 6.3 12 8 12 C8 12.33 8 12.66 8 13 C5.12 13.12 5.12 13.12 2 13 C0 11 0 11 -0.2 8.4 C-0.17 7.4 -0.15 6.4 -0.12 5.38 C-0.11 4.37 -0.09 3.37 -0.07 2.34 C-0.05 1.57 -0.02 0.79 0 0 Z " fill="#E7A59B" transform="translate(752,55)"/>
<path d="M0 0 C1.2 2.41 1.1 3.95 1.06 6.62 C1.05 7.44 1.04 8.26 1.04 9.1 C1.02 9.73 1.01 10.35 1 11 C-1.5 8.06 -2.47 5.82 -3 2 C-3.99 2 -4.98 2 -6 2 C-6 4.31 -6 6.62 -6 9 C-6.33 9 -6.66 9 -7 9 C-7 6.36 -7 3.72 -7 1 C-3.38 -1.12 -3.38 -1.12 0 0 Z " fill="#E7A59B" transform="translate(945,555)"/>
<path d="M0 0 C0.99 0.33 1.98 0.66 3 1 C2.34 1 1.68 1 1 1 C1 2.32 1 3.64 1 5 C1.66 5.33 2.32 5.66 3 6 C2.34 6 1.68 6 1 6 C1 8.64 1 11.28 1 14 C0.34 14 -0.32 14 -1 14 C-2.26 11.48 -2.1 9.69 -2.06 6.88 C-2.05 5.96 -2.04 5.05 -2.04 4.12 C-2.02 3.42 -2.01 2.72 -2 2 C-1.34 2 -0.68 2 0 2 C0 1.34 0 0.68 0 0 Z " fill="#E7A59B" transform="translate(960,550)"/>
<path d="M0 0 C0.99 0 1.98 0 3 0 C3 0.66 3 1.32 3 2 C3.66 2.33 4.32 2.66 5 3 C4.34 3 3.68 3 3 3 C3 5.64 3 8.28 3 11 C3.99 11.33 4.98 11.66 6 12 C4.68 12 3.36 12 2 12 C2 11.34 2 10.68 2 10 C1.34 10 0.68 10 0 10 C-0.19 8.52 -0.38 7.04 -0.56 5.56 C-0.67 4.74 -0.77 3.92 -0.88 3.07 C-0.92 2.38 -0.96 1.7 -1 1 C-0.67 0.67 -0.34 0.34 0 0 Z " fill="#E7A59B" transform="translate(940,283)"/>
<path d="M0 0 C0.99 0 1.98 0 3 0 C3 0.66 3 1.32 3 2 C3.66 2 4.32 2 5 2 C4.67 3.98 4.34 5.96 4 8 C2.68 8 1.36 8 0 8 C-0.38 5.67 -0.71 3.34 -1 1 C-0.67 0.67 -0.34 0.34 0 0 Z " fill="#252837" transform="translate(1029,556)"/>
<path d="M0 0 C2.06 0.44 2.06 0.44 4 1 C4.33 2.65 4.66 4.3 5 6 C3.12 7.06 3.12 7.06 1 8 C0.34 7.67 -0.32 7.34 -1 7 C-1.04 5 -1.04 3 -1 1 C-0.67 0.67 -0.34 0.34 0 0 Z " fill="#252837" transform="translate(230,427)"/>
<path d="M0 0 C0.99 0 1.98 0 3 0 C3 4.62 3 9.24 3 14 C2.01 13.34 1.02 12.68 0 12 C-0.29 9.18 -0.29 9.18 -0.19 5.88 C-0.16 4.78 -0.13 3.68 -0.11 2.55 C-0.07 1.71 -0.04 0.87 0 0 Z " fill="#E7A59B" transform="translate(275,179)"/>
<path d="M0 0 C1.48 2.96 1.06 5.74 1 9 C0.34 9 -0.32 9 -1 9 C-1.66 6.69 -2.32 4.38 -3 2 C-3.99 2 -4.98 2 -6 2 C-6 4.31 -6 6.62 -6 9 C-6.33 9 -6.66 9 -7 9 C-7 6.36 -7 3.72 -7 1 C-3.38 -1.12 -3.38 -1.12 0 0 Z " fill="#E7A59B" transform="translate(1046,555)"/>
<path d="M0 0 C1.65 1.65 3.3 3.3 5 5 C4.01 5 3.02 5 2 5 C2 7.64 2 10.28 2 13 C1.01 12.34 0.02 11.68 -1 11 C-1.33 8.65 -1.33 8.65 -1.25 5.94 C-1.23 5.04 -1.22 4.14 -1.2 3.21 C-1 1 -1 1 0 0 Z " fill="#E7A59B" transform="translate(303,422)"/>
<path d="M0 0 C1.52 1.18 1.52 1.18 3 3 C3.07 5.48 3.07 5.48 2.69 8.19 C2.51 9.54 2.51 9.54 2.32 10.92 C2.22 11.61 2.11 12.29 2 13 C-1 11 -1 11 -1.58 9.16 C-1.66 8.47 -1.73 7.78 -1.81 7.06 C-1.9 6.37 -1.99 5.68 -2.08 4.97 C-2 3 -2 3 0 0 Z " fill="#E7A59B" transform="translate(192,422)"/>
<path d="M0 0 C0.99 0 1.98 0 3 0 C5 3 5 3 4.62 5.69 C4.42 6.45 4.21 7.21 4 8 C2.68 8 1.36 8 0 8 C-0.38 5.67 -0.71 3.34 -1 1 C-0.67 0.67 -0.34 0.34 0 0 Z " fill="#252837" transform="translate(1004,286)"/>
<path d="M0 0 C2.38 0.31 2.38 0.31 5 1 C7 4 7 4 6.62 7.19 C6.42 8.12 6.21 9.04 6 10 C5.34 9.67 4.68 9.34 4 9 C3.38 6.44 3.38 6.44 3 4 C1.35 4 -0.3 4 -2 4 C-2 3.34 -2 2.68 -2 2 C-1.34 2 -0.68 2 0 2 C0 1.34 0 0.68 0 0 Z " fill="#E7A59B" transform="translate(871,281)"/>
<path d="M0 0 C1.65 1.65 3.3 3.3 5 5 C4.01 5 3.02 5 2 5 C2 7.64 2 10.28 2 13 C1.01 12.34 0.02 11.68 -1 11 C-1.33 8.65 -1.33 8.65 -1.25 5.94 C-1.23 5.04 -1.22 4.14 -1.2 3.21 C-1 1 -1 1 0 0 Z " fill="#E7A59B" transform="translate(339,180)"/>
<path d="M0 0 C1.32 0.99 2.64 1.98 4 3 C4.33 2.34 4.66 1.68 5 1 C5.66 1.33 6.32 1.66 7 2 C6.61 2.56 6.22 3.11 5.81 3.69 C5.41 4.83 5.41 4.83 5 6 C6.28 8.75 6.28 8.75 8 11 C7.38 10.67 6.76 10.34 6.12 10 C4.09 8.86 4.09 8.86 2 9 C1.34 9.66 0.68 10.32 0 11 C0.19 10.3 0.37 9.6 0.56 8.88 C1.05 5.66 0.66 3.16 0 0 Z " fill="#E7A59B" transform="translate(678,57)"/>
<path d="M0 0 C1.52 1.18 1.52 1.18 3 3 C3.07 5.48 3.07 5.48 2.69 8.19 C2.51 9.54 2.51 9.54 2.32 10.92 C2.22 11.61 2.11 12.29 2 13 C-1 11 -1 11 -1.58 9.16 C-1.66 8.47 -1.73 7.78 -1.81 7.06 C-1.9 6.37 -1.99 5.68 -2.08 4.97 C-2 3 -2 3 0 0 Z " fill="#E7A59B" transform="translate(688,54)"/>
<path d="M0 0 C0.99 0.33 1.98 0.66 3 1 C3.33 2.98 3.66 4.96 4 7 C2.35 7.33 0.7 7.66 -1 8 C-1.62 5.12 -1.62 5.12 -2 2 C-1.34 1.34 -0.68 0.68 0 0 Z " fill="#252837" transform="translate(968,556)"/>
<path d="M0 0 C0.99 0 1.98 0 3 0 C3 0.66 3 1.32 3 2 C3.66 2.33 4.32 2.66 5 3 C4.34 3 3.68 3 3 3 C3 5.64 3 8.28 3 11 C3.99 11.33 4.98 11.66 6 12 C4.68 12 3.36 12 2 12 C2 11.34 2 10.68 2 10 C1.34 10 0.68 10 0 10 C0 6.7 0 3.4 0 0 Z " fill="#E7A59B" transform="translate(1013,553)"/>
<path d="M0 0 C2.48 0.99 2.48 0.99 5 2 C5 5.3 5 8.6 5 12 C4.01 11.34 3.02 10.68 2 10 C2.66 10 3.32 10 4 10 C4 9.01 4 8.02 4 7 C2.06 7.28 2.06 7.28 0 8 C-0.66 8.99 -1.32 9.98 -2 11 C-2.33 10.34 -2.66 9.68 -3 9 C-1.33 7.33 0.33 5.67 2 4 C0.68 3.34 -0.64 2.68 -2 2 C-1.34 2 -0.68 2 0 2 C0 1.34 0 0.68 0 0 Z " fill="#E7A59B" transform="translate(312,424)"/>
<path d="M0 0 C0.66 1.98 1.32 3.96 2 6 C1.01 6.66 0.02 7.32 -1 8 C-2.32 7.34 -3.64 6.68 -5 6 C-5 4.35 -5 2.7 -5 1 C-2 0 -2 0 0 0 Z " fill="#252837" transform="translate(448,189)"/>
<path d="M0 0 C2.06 0.44 2.06 0.44 4 1 C4.33 2.65 4.66 4.3 5 6 C3.02 6.99 3.02 6.99 1 8 C-1 6 -1 6 -1.19 3.44 C-1 1 -1 1 0 0 Z " fill="#252837" transform="translate(348,185)"/>
<path d="M0 0 C1.98 0.49 1.98 0.49 4 1 C4.33 2.98 4.66 4.96 5 7 C3.12 7.62 3.12 7.62 1 8 C0.34 7.34 -0.32 6.68 -1 6 C-0.62 2.88 -0.62 2.88 0 0 Z " fill="#252837" transform="translate(765,59)"/>
<path d="M0 0 C2.47 0.5 2.47 0.5 5 1 C5.78 4.41 6.1 7.51 6 11 C3.2 9.13 1.89 7.7 0 5 C0.99 4.67 1.98 4.34 3 4 C3 3.34 3 2.68 3 2 C2.01 2 1.02 2 0 2 C0 1.34 0 0.68 0 0 Z " fill="#E7A59B" transform="translate(200,425)"/>
<path d="M0 0 C0.33 0.99 0.66 1.98 1 3 C1.66 3 2.32 3 3 3 C3 3.66 3 4.32 3 5 C2.34 5 1.68 5 1 5 C1.33 5.66 1.66 6.32 2 7 C2.04 9 2.04 11 2 13 C-1 11 -1 11 -1.58 9.16 C-1.66 8.47 -1.73 7.78 -1.81 7.06 C-1.9 6.37 -1.99 5.68 -2.08 4.97 C-2 3 -2 3 0 0 Z " fill="#E7A59B" transform="translate(321,422)"/>
<path d="M0 0 C0.66 0.66 1.32 1.32 2 2 C4.11 1.68 4.11 1.68 6 1 C5.53 1.35 5.05 1.7 4.56 2.06 C2.32 4.84 2.33 7.51 2 11 C1.34 11 0.68 11 0 11 C-1.63 7.75 -1.11 4.61 -1 1 C-0.67 0.67 -0.34 0.34 0 0 Z " fill="#E7A59B" transform="translate(695,56)"/>
<path d="M0 0 C2.48 0.5 2.48 0.5 5 1 C4.01 1.5 4.01 1.5 3 2 C3.16 3.09 3.33 4.19 3.5 5.31 C4 9 4 9 4 12 C2 10.5 2 10.5 0 8 C-0.36 5.24 -0.19 2.8 0 0 Z " fill="#E7A59B" transform="translate(885,554)"/>
<path d="M0 0 C0.99 0.33 1.98 0.66 3 1 C3.33 2.98 3.66 4.96 4 7 C2.35 7.33 0.7 7.66 -1 8 C-1.04 5.67 -1.04 3.33 -1 1 C-0.67 0.67 -0.34 0.34 0 0 Z " fill="#252837" transform="translate(987,286)"/>
<path d="M0 0 C0.66 0 1.32 0 2 0 C4.68 4.02 4.16 6.24 4 11 C3.34 11 2.68 11 2 11 C0.65 8.29 0.93 5.99 1 3 C0.01 2.67 -0.98 2.34 -2 2 C-1.34 1.34 -0.68 0.68 0 0 Z " fill="#E7A59B" transform="translate(582,654)"/>
<path d="M0 0 C0.66 0 1.32 0 2 0 C4.68 4.02 4.16 6.24 4 11 C3.34 11 2.68 11 2 11 C0.65 8.29 0.93 5.99 1 3 C0.01 2.67 -0.98 2.34 -2 2 C-1.34 1.34 -0.68 0.68 0 0 Z " fill="#E7A59B" transform="translate(295,424)"/>
<path d="M0 0 C0.66 0 1.32 0 2 0 C4.68 4.02 4.16 6.24 4 11 C3.34 11 2.68 11 2 11 C0.65 8.29 0.93 5.99 1 3 C0.01 2.67 -0.98 2.34 -2 2 C-1.34 1.34 -0.68 0.68 0 0 Z " fill="#E7A59B" transform="translate(272,424)"/>
<path d="M0 0 C1.68 0.29 3.34 0.62 5 1 C3.68 1.33 2.36 1.66 1 2 C1.96 4.33 1.96 4.33 5 6 C4.67 7.65 4.34 9.3 4 11 C2.35 11 0.7 11 -1 11 C-0.67 10.34 -0.34 9.68 0 9 C0.99 9 1.98 9 3 9 C3.33 8.34 3.66 7.68 4 7 C2.68 6.67 1.36 6.34 0 6 C-0.38 4.34 -0.71 2.68 -1 1 C-0.67 0.67 -0.34 0.34 0 0 Z " fill="#E7A59B" transform="translate(557,655)"/>
<path d="M0 0 C1.45 0.03 1.45 0.03 2.94 0.06 C0.96 1.05 0.96 1.05 -1.06 2.06 C-1.06 5.03 -1.06 8 -1.06 11.06 C-3.38 8.56 -4.04 7.34 -4.31 3.88 C-3.96 -0.03 -3.97 0.08 0 0 Z " fill="#E7A59B" transform="translate(922.0625,554.9375)"/>
<path d="M0 0 C2 1.56 2 1.56 4 4 C4.25 7.75 4.25 7.75 4 11 C3.34 11 2.68 11 2 11 C0.65 8.29 0.93 5.99 1 3 C0.01 2.67 -0.98 2.34 -2 2 C-1.34 1.34 -0.68 0.68 0 0 Z " fill="#E7A59B" transform="translate(266,424)"/>
<path d="M0 0 C0.99 0 1.98 0 3 0 C3.2 2.02 3.39 4.04 3.59 6.05 C3.86 8.23 3.86 8.23 6 10 C4.68 10 3.36 10 2 10 C2 9.34 2 8.68 2 8 C1.34 8 0.68 8 0 8 C0 5.36 0 2.72 0 0 Z " fill="#E7A59B" transform="translate(263,184)"/>
<path d="M0 0 C3.34 2.99 5.15 5.93 7 10 C5 10 5 10 3.38 8.5 C2.92 8 2.47 7.51 2 7 C1.67 7.99 1.34 8.98 1 10 C-0.16 6.53 -0.07 3.64 0 0 Z " fill="#E7A59B" transform="translate(974,285)"/>
<path d="M0 0 C2 1 2 1 3.11 4.05 C3.46 5.32 3.82 6.58 4.19 7.88 C4.55 9.13 4.92 10.39 5.29 11.68 C6 15 6 15 5 18 C2.68 12.39 0.53 6.87 -1 1 C-0.67 0.67 -0.34 0.34 0 0 Z " fill="#E7A59B" transform="translate(422,230)"/>
<path d="M0 0 C0.33 0.99 0.66 1.98 1 3 C1.66 3 2.32 3 3 3 C3 3.66 3 4.32 3 5 C2.34 5 1.68 5 1 5 C1.33 10.02 1.33 10.02 4 14 C2.68 13.67 1.36 13.34 0 13 C-0.23 10.98 -0.46 8.96 -0.68 6.95 C-0.91 4.93 -0.91 4.93 -2 3 C-1.34 2.01 -0.68 1.02 0 0 Z " fill="#E7A59B" transform="translate(513,652)"/>
</svg>
