<svg width="33" height="32" viewBox="0 0 33 32" fill="none" xmlns="http://www.w3.org/2000/svg">
<rect x="0.666992" width="32" height="32" rx="16" fill="#4285F4" fill-opacity="0.3"/>
<rect x="1.16699" y="0.5" width="31" height="31" rx="15.5" stroke="#4285F4" stroke-opacity="0.3"/>
<path d="M22.5163 20C23.0159 20 23.4132 19.6857 23.77 19.2461C24.5003 18.3463 23.3012 17.6272 22.8439 17.2751C22.379 16.9171 21.8599 16.7143 21.3337 16.6667M20.667 15.3333C21.5875 15.3333 22.3337 14.5871 22.3337 13.6667C22.3337 12.7462 21.5875 12 20.667 12" stroke="#4285F4" stroke-width="1.5" stroke-linecap="round"/>
<path d="M10.818 20C10.3184 20 9.9211 19.6857 9.56435 19.2461C8.83404 18.3463 10.0331 17.6272 10.4904 17.2751C10.9553 16.9171 11.4744 16.7143 12.0006 16.6667M12.334 15.3333C11.4135 15.3333 10.6673 14.5871 10.6673 13.6667C10.6673 12.7462 11.4135 12 12.334 12" stroke="#4285F4" stroke-width="1.5" stroke-linecap="round"/>
<path d="M14.0565 18.0742C13.3753 18.4954 11.5893 19.3554 12.6771 20.4316C13.2085 20.9574 13.8003 21.3334 14.5444 21.3334H18.7902C19.5343 21.3334 20.1261 20.9574 20.6575 20.4316C21.7453 19.3554 19.9593 18.4954 19.2781 18.0742C17.6807 17.0864 15.6539 17.0864 14.0565 18.0742Z" stroke="#4285F4" stroke-width="1.5" stroke-linecap="round" stroke-linejoin="round"/>
<path d="M19.0007 13C19.0007 14.2886 17.956 15.3333 16.6673 15.3333C15.3787 15.3333 14.334 14.2886 14.334 13C14.334 11.7113 15.3787 10.6666 16.6673 10.6666C17.956 10.6666 19.0007 11.7113 19.0007 13Z" stroke="#4285F4" stroke-width="1.5"/>
</svg>
