<?xml version="1.0" encoding="UTF-8"?>
<!DOCTYPE svg PUBLIC "-//W3C//DTD SVG 1.1//EN" "http://www.w3.org/Graphics/SVG/1.1/DTD/svg11.dtd">
<svg xmlns="http://www.w3.org/2000/svg" version="1.1" width="640px" height="640px" style="shape-rendering:geometricPrecision; text-rendering:geometricPrecision; image-rendering:optimizeQuality; fill-rule:evenodd; clip-rule:evenodd" xmlns:xlink="http://www.w3.org/1999/xlink">
<g><path style="opacity:1" fill="#f4f4f4" d="M -0.5,-0.5 C 212.833,-0.5 426.167,-0.5 639.5,-0.5C 639.5,212.833 639.5,426.167 639.5,639.5C 426.167,639.5 212.833,639.5 -0.5,639.5C -0.5,426.167 -0.5,212.833 -0.5,-0.5 Z"/></g>
<g><path style="opacity:1" fill="#040404" d="M 313.5,80.5 C 342.641,80.6418 356.975,95.3084 356.5,124.5C 332.154,120.53 307.821,120.53 283.5,124.5C 281.623,101.552 291.623,86.8857 313.5,80.5 Z"/></g>
<g><path style="opacity:1" fill="#000000" d="M 301.5,128.5 C 385.336,121.624 433.169,159.624 445,242.5C 446.326,250.125 447.326,257.791 448,265.5C 449.79,294.181 451.79,322.848 454,351.5C 458.893,376.51 467.56,400.177 480,422.5C 485.414,432.331 491.081,441.998 497,451.5C 505.446,461.948 513.113,472.948 520,484.5C 522.845,490.976 521.678,496.476 516.5,501C 512.479,503.34 508.146,504.674 503.5,505C 495.5,505.167 487.5,505.333 479.5,505.5C 372.83,501.564 266.163,501.564 159.5,505.5C 149.458,505.583 139.458,505.083 129.5,504C 119.989,501.815 116.489,495.981 119,486.5C 120.333,483.833 121.667,481.167 123,478.5C 148.269,446.977 167.603,411.977 181,373.5C 183.594,364.674 185.261,355.674 186,346.5C 187.962,312.77 190.629,279.104 194,245.5C 197.165,216.457 207.165,190.123 224,166.5C 245.067,144.05 270.9,131.383 301.5,128.5 Z"/></g>
<g><path style="opacity:1" fill="#050505" d="M 265.5,509.5 C 287.167,509.5 308.833,509.5 330.5,509.5C 326.069,544.095 306.403,560.929 271.5,560C 245.405,553.74 231.405,537.24 229.5,510.5C 241.678,510.828 253.678,510.495 265.5,509.5 Z"/></g>
</svg>
