<svg width="20" height="20" viewBox="0 0 20 20" fill="none" xmlns="http://www.w3.org/2000/svg">
<path d="M17.3117 15C17.9361 15 18.4327 14.6071 18.8787 14.0576C19.7916 12.9328 18.2928 12.034 17.7212 11.5938C17.14 11.1463 16.4912 10.8928 15.8333 10.8333M15 9.16667C16.1506 9.16667 17.0833 8.23392 17.0833 7.08333C17.0833 5.93274 16.1506 5 15 5" fill="#173277"/>
<path d="M17.3117 15C17.9361 15 18.4327 14.6071 18.8787 14.0576C19.7916 12.9328 18.2928 12.034 17.7212 11.5938C17.14 11.1463 16.4912 10.8928 15.8333 10.8333M15 9.16667C16.1506 9.16667 17.0833 8.23392 17.0833 7.08333C17.0833 5.93274 16.1506 5 15 5" stroke="#173277" stroke-width="1.5" stroke-linecap="round"/>
<path d="M2.68846 15C2.06404 15 1.56739 14.6071 1.12145 14.0576C0.208568 12.9328 1.70739 12.034 2.27904 11.5938C2.86014 11.1463 3.50898 10.8928 4.16683 10.8333M4.58349 9.16667C3.4329 9.16667 2.50016 8.23392 2.50016 7.08333C2.50016 5.93274 3.4329 5 4.58349 5" fill="#173277"/>
<path d="M2.68846 15C2.06404 15 1.56739 14.6071 1.12145 14.0576C0.208568 12.9328 1.70739 12.034 2.27904 11.5938C2.86014 11.1463 3.50898 10.8928 4.16683 10.8333M4.58349 9.16667C3.4329 9.16667 2.50016 8.23392 2.50016 7.08333C2.50016 5.93274 3.4329 5 4.58349 5" stroke="#173277" stroke-width="1.5"/>
<path d="M6.73666 12.593C5.88519 13.1195 3.65265 14.1946 5.01241 15.5398C5.67664 16.197 6.41643 16.667 7.34652 16.667H12.6538C13.5839 16.667 14.3237 16.197 14.9879 15.5398C16.3477 14.1946 14.1152 13.1195 13.2637 12.593C11.2669 11.3583 8.73341 11.3583 6.73666 12.593Z" fill="#173277" stroke="#173277" stroke-width="1.5" stroke-linejoin="round"/>
<path d="M12.9168 6.24967C12.9168 7.86051 11.611 9.16634 10.0002 9.16634C8.38933 9.16634 7.0835 7.86051 7.0835 6.24967C7.0835 4.63884 8.38933 3.33301 10.0002 3.33301C11.611 3.33301 12.9168 4.63884 12.9168 6.24967Z" fill="#173277" stroke="#173277" stroke-width="1.5"/>
</svg>
