<?xml version="1.0" encoding="UTF-8"?>
<!DOCTYPE svg PUBLIC "-//W3C//DTD SVG 1.1//EN" "http://www.w3.org/Graphics/SVG/1.1/DTD/svg11.dtd">
<svg xmlns="http://www.w3.org/2000/svg" version="1.1" width="256px" height="256px" style="shape-rendering:geometricPrecision; text-rendering:geometricPrecision; image-rendering:optimizeQuality; fill-rule:evenodd; clip-rule:evenodd" xmlns:xlink="http://www.w3.org/1999/xlink">
<g><path style="opacity:0.967" fill="#fefffe" d="M 117.5,-0.5 C 124.167,-0.5 130.833,-0.5 137.5,-0.5C 182.749,6.89216 210.916,32.8922 222,77.5C 223.248,98.134 223.915,118.801 224,139.5C 234.546,160.592 245.046,181.592 255.5,202.5C 255.5,205.5 255.5,208.5 255.5,211.5C 253.35,217.148 249.35,220.981 243.5,223C 215.502,223.5 187.502,223.667 159.5,223.5C 158.519,240.475 149.852,251.142 133.5,255.5C 129.5,255.5 125.5,255.5 121.5,255.5C 105.148,251.142 96.4811,240.475 95.5,223.5C 67.498,223.667 39.498,223.5 11.5,223C 5.64984,220.981 1.64984,217.148 -0.5,211.5C -0.5,208.5 -0.5,205.5 -0.5,202.5C 9.95406,181.592 20.4541,160.592 31,139.5C 31.0852,118.801 31.7519,98.134 33,77.5C 44.0843,32.8922 72.251,6.89216 117.5,-0.5 Z M 119.5,32.5 C 157.685,31.5364 181.185,49.5364 190,86.5C 190.333,106.5 190.667,126.5 191,146.5C 197.282,161.066 204.116,175.399 211.5,189.5C 155.5,190.833 99.5,190.833 43.5,189.5C 50.8843,175.399 57.7176,161.066 64,146.5C 64.3333,126.5 64.6667,106.5 65,86.5C 71.4313,56.5548 89.598,38.5548 119.5,32.5 Z"/></g>
</svg>
