<svg xmlns="http://www.w3.org/2000/svg" width="1200" height="1100" viewBox="0 0 1200 1100" version="1.1"><path d="M 327 3.619 C 260.947 8.383, 198.563 30.463, 147 67.329 C 122.945 84.527, 93.942 111.802, 76.637 133.500 C 32.878 188.365, 6.761 253.678, 0.932 322.818 C -0.559 340.504, 0.270 380.968, 2.442 396.500 C 11.534 461.527, 36.558 520.340, 76.317 570.129 C 90.275 587.607, 116.421 614.097, 363.417 861 L 600.006 1097.500 853.874 843.500 C 993.501 703.800, 1111.980 584.488, 1117.160 578.362 C 1149.171 540.503, 1173.332 495.396, 1186.868 448.219 C 1191.762 431.160, 1196.451 407.451, 1197.986 392 C 1198.614 385.675, 1199.549 378.873, 1200.064 376.884 C 1201.233 372.370, 1201.310 327.309, 1200.150 326.593 C 1199.683 326.304, 1199.008 322.264, 1198.651 317.616 C 1195.821 280.801, 1181.968 232.824, 1163.583 196.166 C 1147.162 163.423, 1127.316 135.600, 1101.507 109.140 C 1045.463 51.681, 975.769 16.747, 895.500 5.880 C 873.755 2.937, 832.286 2.673, 811.500 5.346 C 733.029 15.438, 663.850 48.078, 610.401 100.229 L 600.301 110.083 593.401 103.459 C 535.984 48.346, 469.770 16.205, 392.500 5.941 C 377.975 4.012, 340.148 2.671, 327 3.619 M 0.432 352 C 0.432 365.475, 0.574 370.988, 0.747 364.250 C 0.920 357.512, 0.920 346.488, 0.747 339.750 C 0.574 333.012, 0.432 338.525, 0.432 352" stroke="none" fill="#ff0404" fill-rule="evenodd"/><path d="" stroke="none" fill="#fc0404" fill-rule="evenodd"/></svg>